<svg width="173" height="147" viewBox="0 0 173 147" fill="none" xmlns="http://www.w3.org/2000/svg">
<g opacity="0.6">
<path d="M30.256 106.537L25.2169 106.557C16.5874 106.591 9.61543 113.556 9.64458 122.115L9.67655 131.503C9.7057 140.062 16.7249 146.972 25.3544 146.938L30.3935 146.918C39.023 146.884 45.995 139.919 45.9658 131.36L45.9339 121.972C45.9047 113.413 38.8855 106.503 30.256 106.537Z" fill="#595958"/>
<path d="M146.871 106.135L141.832 106.154C133.202 106.185 126.232 113.149 126.264 121.708L126.298 131.096C126.329 139.654 133.351 146.567 141.98 146.535L147.019 146.517C155.649 146.485 162.619 139.522 162.587 130.963L162.553 121.575C162.521 113.016 155.5 106.104 146.871 106.135Z" fill="#595958"/>
<path d="M27.9781 57.3111C27.9781 57.3111 32.9391 42.0727 43.6033 40.4326C43.6033 40.4326 76.5335 35.0475 87.5102 36.5584C87.5102 36.5584 114.125 35.4736 136.274 53.5015C136.274 53.5015 148.813 63.2774 150.232 65.5244C150.232 65.5244 165.78 74.0992 167.42 83.9009C167.42 83.9009 172.251 88.7953 170.949 97.693C170.949 97.693 171.509 104.395 170.571 105.519C170.715 106.613 171.059 107.673 171.587 108.644C171.587 108.644 171.066 111.821 163.97 111.227C163.97 111.227 136.912 117.49 127.263 115.54C117.871 118.629 107.76 118.85 98.2395 116.173C98.2395 116.173 98.8385 99.3847 90.7915 92.8503C90.7915 92.8503 77.2366 79.9363 79.6195 112.131C79.6195 112.131 39.9184 101.658 38.4079 99.8625C38.4079 99.8625 38.6814 75.3906 27.8609 77.8184C27.8609 77.8184 23.2775 78.2317 24.9312 92.8503C24.9312 92.8503 21.9233 92.2691 24.4624 72.8466C24.4624 72.8466 26.7541 68.4688 26.7411 65.4727C26.6046 62.6978 27.0251 59.9236 27.9781 57.3111V57.3111Z" stroke="white" stroke-miterlimit="10"/>
<path d="M169.92 117.516C169.92 117.516 166.379 136.797 146.704 137.662C146.704 137.662 94.8802 149.452 23.4078 137.662C23.4078 137.662 1.11584 138.953 1.01167 108.67C1.01167 108.67 -2.89463 88.6278 4.64454 69.6959V69.6184C4.64454 69.6184 4.44922 60.8499 12.0405 51.1257C12.0405 51.1257 18.7333 40.3942 18.7333 39.9422C18.7333 39.9422 33.2257 8.67757 45.1008 3.39577C55.3957 1.38705 65.8592 0.349304 76.3513 0.296428C76.3513 0.296428 102.393 0.102717 117.433 3.13749C117.589 3.13749 127.094 3.20206 142.615 27.8419C142.615 27.8419 156.157 49.4985 157.16 50.8932C157.16 50.8932 169.256 61.134 168.202 74.4999C168.208 74.5514 168.208 74.6034 168.202 74.6549C168.579 75.7396 175.298 99.398 169.92 117.516Z" fill="#8D8C8C"/>
<path d="M3.49919 102.844C3.49919 102.844 1.15541 98.9698 1.16843 103.425C1.16843 103.425 -1.43577 122.008 7.23623 127.962C7.23623 127.962 12.7702 131.423 13.3431 125.65C13.6026 123.225 13.3385 120.773 12.5684 118.458C11.7983 116.142 10.5399 114.015 8.87687 112.22C8.87687 112.22 3.68149 103.709 3.49919 102.844Z" fill="#3D4039"/>
<path d="M18.6422 42.9396C18.2348 43.7021 17.7073 44.3953 17.0797 44.9929C13.4294 44.7486 9.91246 43.5354 6.89722 41.4803C6.89722 41.4803 6.51961 38.084 6.8191 37.929C7.11858 37.774 8.1212 32.3243 20.8037 33.2541C20.8072 36.6007 20.0693 39.9071 18.6422 42.9396V42.9396Z" fill="#1C1C1C"/>
<path d="M160.285 37.4502L160.193 37.5277C157.214 39.5518 153.744 40.751 150.141 41.0015C149.273 40.172 148.5 39.2494 147.836 38.2508C146.135 35.5837 144.746 32.7329 143.696 29.7535L144.139 29.6889C157.238 28.0359 160.05 33.7181 160.35 33.873C160.649 34.028 160.285 37.4502 160.285 37.4502Z" fill="#1C1C1C"/>
<path d="M160.351 33.8725L148.984 34.247L144.153 29.7788C144.153 29.7788 144.153 29.7788 144.153 29.6884C157.239 28.0354 160.051 33.7304 160.351 33.8725Z" fill="#7A7974"/>
<path d="M160.168 37.5264C157.188 39.5505 153.718 40.7497 150.116 41.0002C149.247 40.1707 148.474 39.2481 147.811 38.2495C149.751 38.3012 158.71 38.5337 160.168 37.5264Z" fill="#050505"/>
<path d="M20.8415 33.2539C19.688 35.1682 18.2628 36.9079 16.6097 38.4195C14.4221 40.2275 6.85693 37.9029 6.85693 37.9029C7.11735 37.7867 8.14601 32.3241 20.8415 33.2539Z" fill="#7A7974"/>
<path d="M18.6414 42.9378C18.2341 43.7003 17.7066 44.3935 17.0789 44.9911C13.4286 44.7468 9.91172 43.5336 6.89648 41.4785C6.89648 41.4785 17.4044 43.0798 18.355 42.7699C18.4152 42.7576 18.478 42.7679 18.5309 42.799C18.5839 42.83 18.6233 42.8795 18.6414 42.9378Z" fill="#050505"/>
<path d="M169.92 117.516C169.92 117.516 167.694 129.617 156.99 135.079C153.792 136.672 150.281 137.554 146.704 137.662C146.704 137.662 94.8802 149.452 23.4078 137.662C20.9353 137.674 18.4814 137.237 16.1681 136.371C9.65763 134.02 1.07678 127.331 1.01167 108.631C1.01167 108.631 -2.89463 88.5891 4.64454 69.6572C4.26693 70.7937 0.087183 83.5784 3.70703 90.991C3.70703 90.991 21.9364 102.924 27.4834 103.298C27.4834 103.298 103.526 113.629 145.91 101.529C155.701 98.7523 163.696 94.7748 168.553 89.196C168.553 89.196 169.1 78.0125 168.215 74.642C168.722 76.2692 175.246 99.5917 169.92 117.516Z" fill="#8D8C8C"/>
<path d="M6.07742 80.2222C6.07742 80.2222 3.23884 87.1958 3.7076 91.0829C3.7076 91.0829 -0.407043 82.9083 4.64511 69.749C4.20555 73.3042 4.69891 76.9116 6.07742 80.2222V80.2222Z" fill="#8D8C8C"/>
<path d="M166.169 80.5335C166.169 80.5335 168.774 85.7895 168.617 89.2891C168.617 89.2891 169.542 77.3308 168.487 75.6133C167.828 77.3037 167.054 78.9476 166.169 80.5335V80.5335Z" fill="#8D8C8C"/>
<path d="M167.668 97.1374C167.668 97.1374 169.986 93.2632 169.999 97.7056C169.999 97.7056 172.733 116.263 164.113 122.242C164.113 122.242 158.605 125.742 157.98 119.969C157.708 117.547 157.958 115.095 158.712 112.775C159.466 110.456 160.708 108.321 162.355 106.513C162.355 106.513 167.486 98.0026 167.668 97.1374Z" fill="#3D4039"/>
<path d="M165.221 118.86C165.221 118.86 159.713 122.359 159.088 116.587C158.867 114.742 158.96 112.874 159.361 111.06C158.12 113.867 157.644 116.949 157.981 119.996C158.606 125.769 164.114 122.269 164.114 122.269C166.965 120.28 168.58 116.91 169.452 113.229C168.611 115.467 167.143 117.421 165.221 118.86V118.86Z" fill="#8D8C8C"/>
<path d="M167.486 115.413C165.481 117.88 162.408 118.732 160.624 117.312C158.84 115.891 159.022 112.727 161.028 110.261C163.033 107.794 166.119 106.929 167.89 108.362C169.661 109.796 169.491 112.934 167.486 115.413Z" fill="#D6E3DD"/>
<path d="M13.0316 120.397C13.0282 120.897 12.9978 121.397 12.9404 121.895C12.3545 127.667 6.82056 124.206 6.82056 124.206C3.13561 121.623 1.49496 116.845 0.817871 112.145C1.15642 117.814 2.61477 124.736 7.23723 128.003C7.23723 128.003 12.7712 131.464 13.3441 125.691C13.53 123.921 13.4245 122.133 13.0316 120.397V120.397Z" fill="#8D8C8C"/>
<path d="M4.42457 120.627C6.45585 123.08 9.3986 124.023 10.9351 122.719C12.4716 121.414 12.2372 118.38 10.1668 115.913C8.09649 113.446 5.21885 112.504 3.65633 113.795C2.09381 115.086 2.39329 118.16 4.42457 120.627Z" fill="#D6E3DD"/>
<path d="M39.8798 86.1742C39.8798 86.1742 11.8847 78.5033 6.07729 80.2208C6.07729 80.2208 3.47309 73.2602 4.67102 69.6185C5.43926 67.3069 4.98352 64.7241 6.58511 60.398C7.92644 57.0543 9.76547 53.9288 12.0409 51.1257C13.577 50.9774 15.1201 50.9128 16.6634 50.932C16.6634 50.932 20.9082 61.0824 33.4475 69.3086C33.4475 69.3086 39.8798 84.4824 39.8798 86.1742Z" fill="#D6E3DD"/>
<path d="M166.171 80.5321C160.338 78.8145 134.921 86.8341 134.921 86.8341C134.921 85.1294 141.08 69.8264 141.08 69.8264C153.554 61.484 155.077 51.6049 155.077 51.6049C155.837 51.4449 156.607 51.3413 157.382 51.2949C160.833 53.9403 163.527 57.4351 165.195 61.4324C166.555 64.8309 167.682 68.3171 168.567 71.8668C169.843 75.4956 166.171 80.5321 166.171 80.5321Z" fill="#D6E3DD"/>
<path d="M46.0524 4.99533C60.1021 3.63936 90.4801 5.47314 122.264 5.96387C122.264 5.96387 142.356 23.8109 146.028 38.2487C146.028 38.2487 25.8438 39.2818 24.7891 37.1898C24.7501 37.2285 41.8336 5.39566 46.0524 4.99533Z" fill="#3D4039"/>
<path d="M109.856 36.4534C62.8374 36.6213 41.8866 36.2984 32.6417 35.9368C32.1431 35.9178 31.6578 35.7723 31.2322 35.5142C30.8065 35.2561 30.4548 34.8941 30.2105 34.4626C29.9662 34.0312 29.8376 33.5448 29.8369 33.05C29.8363 32.5552 29.9636 32.0685 30.2067 31.6365C36.1573 21.0212 42.5246 10.7934 45.4804 7.78444C45.9639 7.29072 46.6116 6.98786 47.3033 6.93212C50.2851 6.69967 54.0873 6.57053 58.866 6.55762C67.6161 6.55762 78.8532 6.85464 90.7414 7.21623C100.286 7.50033 110.13 7.79736 120.312 7.97815C121.044 7.98678 121.746 8.26796 122.278 8.7659C125.95 12.2398 136.042 22.2222 141.289 32.011C141.528 32.4552 141.647 32.9534 141.634 33.4568C141.62 33.9603 141.475 34.4516 141.212 34.8826C140.95 35.3136 140.579 35.6696 140.136 35.9155C139.692 36.1614 139.193 36.2889 138.685 36.2855L109.856 36.4534Z" fill="#D6E3DD"/>
<path d="M24.7494 37.2266C24.7494 37.2266 18.5904 45.9176 19.2024 47.9322C19.2024 47.9322 92.4587 38.505 118.8 48.3713C118.8 48.3713 152.941 48.6425 156.066 51.6127C159.191 54.5829 148.384 38.2984 146.027 38.3113C143.67 38.3242 26.4031 40.907 24.7494 37.2266Z" fill="#8D8C8C"/>
<path opacity="0.56" d="M33.4478 69.3086C14.971 70.8841 7.02816 60.9791 6.58545 60.398C7.92678 57.0543 9.76581 53.9288 12.0413 51.1257C13.5773 50.9774 15.1205 50.9128 16.6637 50.932C16.6637 50.932 20.9086 61.0824 33.4478 69.3086Z" fill="white"/>
<path opacity="0.49" d="M165.259 61.4322L165.103 61.5743C155.389 70.02 141.131 69.8909 141.131 69.8909C153.605 61.5485 155.128 51.6693 155.128 51.6693C155.888 51.5094 156.658 51.4058 157.433 51.3594C160.88 53.9852 163.578 57.457 165.259 61.4322V61.4322Z" fill="white"/>
<path d="M157.03 134.886C157.035 134.951 157.035 135.015 157.03 135.08C154.919 136.146 152.659 136.89 150.324 137.288C149.14 137.489 147.944 137.614 146.744 137.663C146.744 137.663 94.92 149.453 23.4477 137.663C22.0698 137.696 20.6928 137.566 19.3461 137.275C18.2795 137.066 17.2304 136.777 16.208 136.41C16.3862 133.004 17.2728 129.671 18.8122 126.621C18.8122 126.621 19.6325 112.261 27.5493 103.376C30.0838 100.432 33.4342 98.2896 37.1849 97.2163C37.1849 97.2163 65.0629 88.8609 66.9639 88.7447C68.865 88.6285 99.7769 81.2676 140.402 97.7845C142.497 98.6862 144.408 99.9598 146.041 101.542C150.259 105.417 155.259 112.971 154.96 126.505C154.96 126.583 157.33 132.717 157.03 134.886Z" fill="#434443"/>
<path d="M115.204 106.069L61.1538 106.265C58.1551 106.276 55.733 108.696 55.744 111.67L55.7589 115.686C55.7699 118.661 58.2097 121.063 61.2085 121.052L115.258 120.855C118.257 120.844 120.679 118.425 120.668 115.45L120.653 111.434C120.642 108.46 118.202 106.058 115.204 106.069Z" fill="#BFC4C1"/>
<path d="M153.879 136.203C152.708 136.641 151.507 136.995 150.285 137.262C149.106 137.504 147.908 137.638 146.704 137.663C146.704 137.663 94.8808 149.453 23.4085 137.663C22.0306 137.696 20.6536 137.566 19.3069 137.275C19.3069 137.172 19.3069 137.069 19.2418 136.978C18.3173 133.104 21.6116 127.409 21.6116 127.409C24.6194 125.382 27.7836 128.7 27.7836 128.7C78.9692 144.055 132.316 132.239 147.303 128.3C149.986 127.603 151.431 127.151 151.431 127.151C153.801 129.475 153.957 135.067 153.879 136.203Z" fill="#8D8C8C"/>
<path d="M27.745 128.699C27.745 128.699 24.1252 129.035 23.383 137.739C21.9213 137.706 20.4657 137.542 19.034 137.248C17.8621 133.374 21.5731 127.408 21.5731 127.408C24.5679 125.419 27.745 128.699 27.745 128.699Z" fill="#2A2B2A"/>
<path d="M153.932 136.395C152.743 136.782 151.523 137.072 150.286 137.26C151.588 133.296 147.916 129.008 147.304 128.337C149.987 127.639 151.432 127.188 151.432 127.188C153.802 129.473 154.01 135.259 153.932 136.395Z" fill="#2A2B2A"/>
<path d="M147.304 128.339C134.049 144.959 51.6257 138.115 51.6257 138.115C34.5942 136.384 27.7842 128.739 27.7842 128.739C78.9698 144.094 132.317 132.278 147.304 128.339Z" fill="#8D8C8C"/>
<path d="M33.4473 69.3223C33.4473 69.3223 61.781 75.3402 71.8723 74.7074C83.0994 71.5125 95.0139 71.5707 106.209 74.8753C106.209 74.8753 134.855 72.5378 141.131 69.8259L139.829 72.8607C139.829 72.8607 98.7998 81.3839 98.7086 81.6809C98.6175 81.9779 91.2996 74.4878 78.526 81.2548L34.6582 72.3054L33.4473 69.3223Z" fill="#8D8C8C"/>
<path d="M34.229 71.8145L77.9406 81.7195C77.9406 81.7195 88.3574 73.4933 98.5789 81.8228L140.337 72.4731L135.22 83.4112L108.761 88.5767C108.761 88.5767 92.5241 119.002 65.2451 88.2281L39.203 83.0625L34.229 71.8145Z" fill="#2E302A"/>
<path d="M36.2988 75.7373L71.6248 83.6148C71.6248 83.6148 76.1041 85.3065 75.9478 88.2122C75.9478 88.2122 87.5235 103.709 100.531 87.9539C100.531 87.9539 101.039 83.3436 107.576 83.3178L137.98 76.2151L137.134 78.1006L108.565 85.384C106.664 86.7713 104.941 88.3847 103.435 90.188C103.435 90.188 87.6667 107.467 73.1613 89.6973C73.1613 89.6973 69.6196 85.9522 67.8097 85.4486C65.9998 84.9449 37.3014 77.8035 37.3014 77.8035L36.2988 75.7373Z" fill="#D6E3DD"/>
<path d="M88.4741 93.1104C93.6734 93.0915 97.8779 90.272 97.8651 86.8129C97.8523 83.3539 93.6271 80.565 88.4278 80.5839C83.2285 80.6028 79.024 83.4223 79.0368 86.8814C79.0496 90.3405 83.2748 93.1293 88.4741 93.1104Z" fill="#D6E3DD"/>
</g>
</svg>
