<svg width="202" height="126" viewBox="0 0 202 126" fill="none" xmlns="http://www.w3.org/2000/svg">
<g opacity="0.6">
<path d="M84.994 118.019C92.7378 118.019 99.0154 109.446 99.0154 98.8703C99.0154 88.2948 92.7378 79.7217 84.994 79.7217C77.2502 79.7217 70.9727 88.2948 70.9727 98.8703C70.9727 109.446 77.2502 118.019 84.994 118.019Z" fill="#3D4039"/>
<path d="M98.5911 98.837C98.5911 107.336 95.3303 114.223 91.4065 114.223C87.4827 114.223 84.2437 107.303 84.2437 98.837C84.2437 90.371 87.5044 83.4619 91.4391 83.4619C95.3738 83.4619 98.5911 90.3169 98.5911 98.837Z" fill="#D6E3DD"/>
<path d="M199.46 92.6211C199.46 108.418 194.569 121.22 188.525 121.22C182.482 121.22 177.58 108.418 177.58 92.6211C177.58 76.8243 182.482 64.0225 188.525 64.0225C194.569 64.0225 199.46 76.8243 199.46 92.6211Z" fill="#3D4039"/>
<path d="M197.383 93.2266C197.383 103.801 195.448 112.364 193.035 112.364C190.622 112.364 188.688 103.801 188.688 93.2266C188.688 82.6522 190.622 74.0996 193.035 74.0996C195.448 74.0996 197.383 82.6197 197.383 93.2266Z" fill="#D6E3DD"/>
<path d="M197.112 93.8654C197.112 100.947 195.819 106.689 194.221 106.689C192.623 106.689 191.33 101.002 191.33 93.8654C191.33 86.7293 192.623 81.042 194.221 81.042C195.819 81.042 197.112 86.7833 197.112 93.8654Z" fill="#3D4039"/>
<path d="M196.015 94.7604C196.015 98.6312 195.309 101.767 194.439 101.767C193.57 101.767 192.863 98.6312 192.863 94.7604C192.863 90.8896 193.57 87.7432 194.439 87.7432C195.309 87.7432 196.015 90.8787 196.015 94.7604Z" fill="#3D4039"/>
<path d="M197.058 91.8302C197.058 96.512 195.689 100.296 194.015 100.296C192.341 100.296 190.972 96.512 190.972 91.8302C190.972 87.1485 192.33 83.375 194.015 83.375C195.7 83.375 197.058 87.1593 197.058 91.8302Z" fill="#3D4039"/>
<path d="M21.0727 125.846C32.0941 125.846 41.0288 113.647 41.0288 98.5986C41.0288 83.5505 32.0941 71.3516 21.0727 71.3516C10.0513 71.3516 1.1167 83.5505 1.1167 98.5986C1.1167 113.647 10.0513 125.846 21.0727 125.846Z" fill="#3D4039"/>
<path d="M37.8553 99.7356C37.8553 112.483 32.4859 122.82 25.8991 122.82C19.3123 122.82 13.9429 112.483 13.9429 99.7356C13.9429 86.9879 19.3232 76.6621 25.9534 76.6621C32.5837 76.6621 37.8553 86.9446 37.8553 99.7356Z" fill="#D6E3DD"/>
<path d="M35.0185 101.109C35.0185 109.759 31.8882 116.755 28.0405 116.755C24.1927 116.755 21.0732 109.748 21.0732 101.109C21.0732 92.4702 24.1927 85.4746 28.0405 85.4746C31.8882 85.4746 35.0185 92.481 35.0185 101.109Z" fill="#3D4039"/>
<path d="M150.7 125.478C160.743 125.478 168.885 113.28 168.885 98.2314C168.885 83.1833 160.743 70.9844 150.7 70.9844C140.658 70.9844 132.516 83.1833 132.516 98.2314C132.516 113.28 140.658 125.478 150.7 125.478Z" fill="#3D4039"/>
<path d="M166.101 98.1051C166.101 108.798 162.156 117.47 157.286 117.47C152.417 117.47 148.471 108.82 148.471 98.1051C148.471 87.3901 152.417 78.7402 157.286 78.7402C162.156 78.7402 166.101 87.4117 166.101 98.1051Z" fill="#D6E3DD"/>
<path d="M164.971 98.0611C164.971 106.57 161.83 113.469 157.95 113.469C154.069 113.469 150.939 106.57 150.939 98.0611C150.939 89.5518 154.08 82.6211 157.95 82.6211C161.819 82.6211 164.971 89.541 164.971 98.0611Z" fill="#3D4039"/>
<path d="M162.33 99.3147L165.656 100.396L165.58 95.206L162.852 94.7627L165.156 91.7785L164.145 86.9454L161.787 90.427C161.441 89.1381 160.758 87.9631 159.809 87.0211L159.352 80.0039L155.146 80.0796L156.396 87.1941C155.426 88.2929 154.749 89.6165 154.428 91.0433L150.602 87.0319L149.591 92.4381L153.809 95.9521V96.017C153.809 96.3197 153.809 96.6224 153.809 96.9144L149.461 96.5792V101.001L154.374 100.666C154.374 100.753 154.374 100.839 154.45 100.937L149.798 104.926L151.483 109.251L155.83 104.126C156.004 104.394 156.208 104.64 156.439 104.861L155.091 114.128L160.178 114.333L160.026 104.883C160.354 104.557 160.642 104.194 160.885 103.802L164.276 107.856L165.45 102.591L162.189 100.212C162.232 99.9202 162.276 99.5958 162.33 99.3147Z" fill="#D6E3DD"/>
<path d="M195.743 97.6613L197.113 98.6236L197.265 92.5579L195.939 93.6392L197.145 88.4709L196.645 82.7079L195.472 86.9463C195.232 85.1082 194.635 75.6475 194.635 75.6475L192.461 75.7664C192.461 75.7664 192.091 85.6489 191.863 87.66L189.972 82.8052L189.472 89.2926C189.472 89.2926 192.2 94.8501 192.211 95.2069L189.385 94.3528V99.7589L191.83 99.3589C192.385 98.6669 189.917 104.581 189.917 104.581L191.178 109.144L193.417 100.992C193.515 101.327 192.559 110.604 192.559 110.604L194.678 110.096L194.906 101.446C195.059 101.089 195.83 106.852 195.83 106.852L196.841 101.381C196.841 101.381 195.722 97.9965 195.743 97.6613Z" fill="#D6E3DD"/>
<path d="M199.372 95.7261C199.372 95.7261 200.839 67.5491 196.872 70.4036C196.872 70.4036 191.937 74.9988 192.209 87.8439C192.209 87.8439 192.492 103.241 186.057 104.462L168.036 106.257C169.754 98.0035 168.763 89.4192 165.21 81.7673C165.21 81.7673 164.753 59.2345 158.188 68.3709C157.721 69.181 157.345 70.0405 157.069 70.9334C153.225 80.483 151.412 90.7211 151.743 101.002V101.121C151.561 101.813 151.343 102.495 151.091 103.165V103.165C150.508 104.979 149.549 106.651 148.276 108.074C148.276 108.074 138.765 108.409 124.537 108.777C91.9291 109.62 34.5283 110.571 9.95286 107.857C7.61596 107.609 5.60514 107.306 3.86605 106.992C2.59948 104.917 1.62313 102.68 0.963951 100.343C0.621471 99.2045 0.481689 98.0152 0.550918 96.8289C0.550918 96.8289 0.67048 72.0363 6.9638 61.97C6.9638 61.97 6.40947 47.2544 20.1048 43.1674C20.1048 43.1674 23.1917 40.2588 27.7133 36.0745C38.9847 25.792 59.1364 7.8327 64.1906 6.66497C64.1906 6.66497 104.407 -5.04478 151.547 2.57791C151.547 2.57791 166.155 1.30205 178.025 16.742C179.926 19.3293 181.599 22.0751 183.025 24.9486C185.095 28.9544 186.487 33.2724 187.144 37.7288L187.242 37.8261C187.992 38.6262 193.166 44.2378 194.079 46.357C195.166 48.7898 197.731 61.2239 198.926 66.5977C198.926 66.5977 205.535 87.4222 199.372 95.7261Z" fill="#8D8C8C"/>
<path d="M187.024 37.7828C185.622 38.4208 172.383 44.4216 159.612 45.9786H159.547C159.21 46.1516 148.536 47.2004 142.286 42.8538C142.259 42.8389 142.236 42.8169 142.22 42.7903C142.205 42.7637 142.196 42.7333 142.196 42.7024C142.196 42.6715 142.205 42.6412 142.22 42.6146C142.236 42.588 142.259 42.566 142.286 42.5511C143.514 41.7942 149.069 38.2261 148.471 35.0473C148.465 35.0024 148.444 34.961 148.41 34.9311C148.375 34.9012 148.331 34.8848 148.286 34.8851L28.2346 36.1285C28.1981 36.1285 28.1625 36.1176 28.1322 36.0974C28.1019 36.0772 28.0783 36.0485 28.0643 36.015C28.0504 35.9815 28.0467 35.9446 28.0538 35.909C28.0609 35.8734 28.0784 35.8407 28.1042 35.815C39.3865 25.4243 59.2447 7.82188 64.1902 6.66497C64.1902 6.66497 104.407 -5.04478 151.525 2.57791C151.525 2.57791 166.264 1.30205 178.024 16.7421C178.024 16.7421 185.72 26.7434 187.133 37.5882C187.137 37.6278 187.129 37.6677 187.109 37.7025C187.09 37.7373 187.06 37.7653 187.024 37.7828V37.7828Z" fill="#8D8C8C"/>
<path d="M27.5068 36.1271L24.1265 39.1329L21.9526 38.4085L22.507 35.5108C26.8547 28.3746 33.2784 30.775 33.2784 30.775L27.5068 36.1271Z" fill="#111111"/>
<path d="M27.3542 36.1804L24.0934 39.0777C24.0934 39.0777 21.9195 38.9263 21.9195 38.3533C21.8761 37.3638 22.0699 36.3781 22.4848 35.4777C23.4739 34.548 27.3542 36.1804 27.3542 36.1804Z" fill="black"/>
<path d="M169.08 9.09321C169.08 9.09321 154.7 -1.49206 154.95 10.1744C154.95 10.1744 157.482 40.6219 162.558 45.5199C162.558 45.5199 183.862 41.368 186.992 37.9513C188.079 36.7079 178.253 14.2831 169.08 9.09321Z" fill="#434443"/>
<path d="M157.579 18.8247C157.579 18.8247 155.981 9.09356 159.622 8.1637C159.622 8.1637 162.557 7.60146 163.046 8.29345C168.699 16.4078 172.756 25.5137 175.003 35.1296C175.003 35.1296 167.198 40.0276 163.775 37.4435C160.351 34.8593 157.579 18.8247 157.579 18.8247Z" fill="#D6E3DD"/>
<path d="M167.155 10.3818C171.074 12.8204 174.465 16.0118 177.131 19.7693C179.796 23.5268 181.681 27.7752 182.676 32.2659C182.676 32.2659 176.655 34.5365 176.013 33.9959C175.372 33.4553 170.905 17.7774 166.698 11.7441C166.698 11.7441 165.611 10.1115 167.155 10.3818Z" fill="#D6E3DD"/>
<path d="M65.0378 8.3488C68.6355 7.646 120.21 -2.13915 150.068 8.3488C150.516 8.50791 150.903 8.80148 151.175 9.18888C151.448 9.57629 151.593 10.0384 151.59 10.5113C151.72 16.4364 151.818 36.9474 146.894 35.0769C146.894 35.0769 60.7988 34.666 37.0059 35.4661C36.5303 35.4855 36.0601 35.3593 35.6589 35.1045C35.2577 34.8497 34.9447 34.4786 34.7622 34.0413C34.5797 33.604 34.5365 33.1215 34.6384 32.6589C34.7403 32.1964 34.9824 31.7761 35.332 31.4547C42.1579 24.5997 55.7554 11.7331 64.6791 8.45692L65.0378 8.3488Z" fill="#434443"/>
<path d="M44.386 31.9288C43.9901 31.9357 43.6012 31.825 43.269 31.6108C42.9368 31.3966 42.6764 31.0886 42.5211 30.7263C42.3659 30.364 42.3228 29.9639 42.3975 29.5771C42.4722 29.1904 42.6612 28.8346 42.9404 28.5553C50.3206 21.6138 59.5704 13.8289 65.7659 11.5475C81.8288 8.56417 98.121 6.96881 114.46 6.7793C127.612 6.7793 138.536 8.10921 147.068 10.7258C147.455 10.8599 147.789 11.1119 148.023 11.4457C148.257 11.7796 148.379 12.1785 148.373 12.5855C148.459 19.873 147.959 26.7605 147.133 30.2312C147.026 30.6588 146.776 31.0377 146.425 31.3065C146.074 31.5754 145.642 31.7184 145.199 31.7125C139.481 31.7125 120.438 31.6152 99.689 31.6152C70.9505 31.6152 54.2227 31.799 44.386 31.9288Z" fill="#D6E3DD"/>
<g opacity="0.44">
<path opacity="0.44" d="M168.314 8.18508L163.252 6.1582L150.849 36.7991L155.911 38.826L168.314 8.18508Z" fill="white"/>
<path opacity="0.44" d="M174.61 7.83366L171.787 6.70312L159.384 37.344L162.207 38.4745L174.61 7.83366Z" fill="white"/>
</g>
<path d="M159.797 39.3692L160.95 42.6129C160.95 42.6129 179.71 44.7754 184.59 38.7961C184.59 38.7961 185.873 25.2699 165.612 29.8111C163.384 30.3085 165.515 38.8826 165.515 38.8826C165.515 38.8826 161.808 39.9855 159.797 39.3692Z" fill="#111111"/>
<path d="M195.742 71.7332C195.742 71.7332 197.742 65.3107 199.253 74.5552C200.764 83.7998 199.601 93.2606 199.09 93.2606C198.579 93.2606 199.373 83.1294 195.742 71.7332Z" fill="#111111"/>
<path d="M155.981 72.4916C155.981 72.4916 160.579 73.6377 165.187 81.7686C165.187 81.7686 165.959 65.9285 161.394 65.9285C161.416 65.9285 157.861 65.7123 155.981 72.4916Z" fill="#111111"/>
<path d="M199.253 95.7795C199.253 95.7795 200.666 68.846 196.872 70.403C196.872 70.403 194.861 71.8086 192.894 78.9231C192.894 78.9231 191.883 71.8627 195.861 68.2622C196.166 67.996 196.534 67.8122 196.93 67.7287C197.327 67.6451 197.738 67.6646 198.125 67.7852C198.511 67.9058 198.86 68.1235 199.138 68.4173C199.415 68.711 199.612 69.071 199.709 69.4624C201.231 75.474 204.013 89.3786 199.253 95.7795Z" fill="#8D8C8C"/>
<path d="M124.525 108.787C91.9171 109.62 34.5164 110.582 9.94088 107.868L9.70176 107.371C9.30901 106.139 9.40626 104.804 9.97349 103.641C10.8756 101.857 11.6474 99.3157 12.3104 98.9373H12.4408C13.1147 98.7967 14.4951 75.2258 25.9948 72.6417C25.9948 72.6417 48.6247 63.6999 51.6898 65.0731C54.755 66.4462 82.9064 65.2569 82.9064 65.2569C82.9064 65.2569 109.569 68.8574 115.764 79.3778C115.764 79.3778 122.655 92.4499 123.068 99.4022L124.525 108.787Z" fill="#434443"/>
<path d="M140.461 74.0889C140.461 74.0889 148.265 94.3836 140.461 99.141C140.461 99.141 128.004 104.547 127.32 89.8857C127.08 84.7823 133.341 81.1709 140.461 74.0889Z" fill="#3D4039"/>
<path d="M140.667 73.8096C140.667 73.8096 149.015 93.3582 140.46 99.1428C140.46 99.1428 128.004 104.549 127.319 89.8875C127.08 84.7841 133.548 80.8916 140.667 73.8096Z" fill="#8D8C8C"/>
<path d="M140.667 73.8096C140.667 73.8096 148.808 93.2718 141.003 98.0616C141.003 98.0616 129.047 104.192 128.362 89.4766C128.123 84.3516 133.634 82.7081 140.667 73.8096Z" fill="#3D4039"/>
<path d="M3.81145 74.9566C3.42015 78.0921 1.22455 96.1487 2.15931 97.5867C2.15931 97.5867 7.28962 101.739 10.4417 97.0353C13.5938 92.332 9.59391 80.46 4.21361 74.8268C4.18436 74.7923 4.14544 74.7672 4.10181 74.7548C4.05819 74.7424 4.01183 74.7432 3.96867 74.7572C3.92551 74.7711 3.8875 74.7975 3.8595 74.833C3.83149 74.8685 3.81476 74.9115 3.81145 74.9566V74.9566Z" fill="#8D8C8C"/>
<path d="M4.08284 78.5128C3.50676 83.4216 2.26766 94.7313 2.76765 97.1857C2.82196 97.4328 2.96988 97.6496 3.18069 97.7911C4.26761 98.5696 8.47403 101.035 11.1805 97.0343C14.0282 92.7959 10.6914 83.7027 5.98496 77.9613C5.84899 77.8032 5.67005 77.6875 5.46961 77.6281C5.26917 77.5686 5.05574 77.568 4.85494 77.6262C4.65413 77.6844 4.47447 77.799 4.33752 77.9563C4.20057 78.1135 4.11214 78.3068 4.08284 78.5128V78.5128Z" fill="#3D4039"/>
<path d="M22.1151 46.5295C22.1151 46.5295 140.232 37.7823 144.427 41.2315C144.427 41.2315 149.666 37.5336 148.449 34.9062L28.0062 35.9875C28.0062 35.9875 19.9738 42.6154 20.1151 43.1669C20.2564 43.7183 21.1151 46.4862 22.1151 46.5295Z" fill="#C4C4C4"/>
<path d="M192.209 87.842C192.209 87.842 192.492 103.239 186.057 104.46L168.036 106.255L168.883 99.3138L186.274 97.2487C186.274 97.2487 188.872 96.9567 192.024 84.8469C192.149 84.315 192.327 83.797 192.557 83.3008C192.317 84.8026 192.201 86.3214 192.209 87.842V87.842Z" fill="#8D8C8C"/>
<g style="mix-blend-mode:multiply">
<path d="M153.807 80.9438C153.807 80.9438 155.296 60.595 163.383 64.6172C165.068 65.4497 166.926 69.3746 165.242 81.5601C165.242 81.5601 164.448 65.0064 160.568 66.2715C160.579 66.2715 158.318 65.7092 153.807 80.9438Z" fill="#8D8C8C"/>
</g>
<path d="M124.525 108.789C91.9171 109.621 34.5164 110.583 9.94088 107.869L9.70176 107.372C9.30901 106.14 9.40626 104.805 9.97349 103.642C10.8756 101.858 11.6474 99.3169 12.3104 98.9385H12.4408L26.9513 103.155C26.9513 103.155 100.341 104.788 102.254 104.237C104.167 103.685 123.068 99.4683 123.068 99.4683L123.895 104.507L124.525 108.789Z" fill="#8D8C8C"/>
<g style="mix-blend-mode:multiply">
<path d="M151.732 101.001V101.12L151.091 103.163C150.508 104.977 149.549 106.65 148.275 108.072C148.275 108.072 138.765 108.418 124.537 108.775C91.929 109.607 34.5282 110.57 9.95277 107.856C7.605 107.607 5.60506 107.315 3.87684 106.991C2.60685 104.916 1.62685 102.679 0.963867 100.341C4.59421 101.823 25.5502 109.651 57.3538 107.186C57.3538 107.186 125.265 107.586 132.928 103.553C135.558 102.169 143.699 98.46 143.699 98.46C143.699 98.46 145.102 101.509 146.069 101.92C147.395 102.482 151.732 101.001 151.732 101.001Z" fill="#8D8C8C"/>
</g>
<path d="M85.4621 88.8371H44.7566C43.8956 88.8442 43.0417 88.6817 42.2442 88.3589C41.4467 88.036 40.7213 87.5593 40.11 86.9562C39.4986 86.3531 39.0134 85.6355 38.6822 84.8449C38.3511 84.0542 38.1806 83.2062 38.1807 82.3497V82.3497C38.195 80.6242 38.8941 78.9742 40.1258 77.7591C41.3575 76.544 43.0219 75.8622 44.7566 75.8623H85.4621C87.1873 75.8764 88.8379 76.5645 90.0578 77.778C91.2778 78.9916 91.9695 80.6335 91.9837 82.3497C91.9837 84.0703 91.2966 85.7204 90.0735 86.937C88.8505 88.1536 87.1917 88.8371 85.4621 88.8371Z" fill="#BFC4C1"/>
<path d="M194.079 46.3571C194.079 46.3571 186.96 58.5534 148.537 49.7089C148.216 48.1075 147.632 46.5696 146.809 45.1569C146.809 45.1569 160.939 49.4819 186.96 37.9559L187.242 37.8262C187.992 38.6263 193.166 44.2379 194.079 46.3571Z" fill="#C4C4C4"/>
<path d="M6.96355 61.969C6.96355 61.969 4.59404 72.3164 21.0175 74.8573C21.0175 74.8573 44.7561 65.2344 49.2777 65.2344C49.3212 65.2344 17.3655 58.3361 6.96355 61.969Z" fill="#8D8C8C"/>
<path d="M9.97447 104.353C10.8766 102.569 11.6483 100.028 12.3114 99.6494H12.4418C13.1157 99.5089 14.4961 75.938 25.9958 73.3538C25.9958 73.3538 48.6257 64.4121 51.6908 65.7852C54.756 67.1584 82.9074 65.969 82.9074 65.969C82.9074 65.969 109.57 69.5803 115.765 80.1116C115.765 80.1116 122.656 93.1836 123.069 100.136L124.526 108.786H126.569L125.254 99.9197C124.743 92.5565 117.994 79.6682 117.646 79.0303C110.994 67.6882 84.3313 63.9471 83.1574 63.7849H82.9618H82.7661C82.6574 63.7849 71.3642 64.2715 62.4514 64.2715C54.3103 64.2715 52.756 63.8606 52.5604 63.7958C51.968 63.5393 51.3256 63.4174 50.68 63.4389C45.2453 63.4389 27.9414 70.1858 25.3002 71.2238C14.8113 73.7539 12.0179 89.8751 10.8331 96.7841C10.7353 97.314 10.6375 97.8654 10.5614 98.2763C9.82473 99.2362 9.25187 100.31 8.8658 101.455C8.59407 102.115 8.3006 102.807 8.018 103.39C6.68107 106.061 7.37671 107.596 7.37671 107.596L9.89838 107.856C9.64064 107.305 9.51346 106.703 9.52665 106.096C9.53984 105.488 9.69305 104.892 9.97447 104.353V104.353Z" fill="#2A2B2A"/>
<path d="M105.549 71.224C105.549 71.224 130.19 69.7751 141.331 63.6554C141.331 63.6554 115.951 52.2159 82.9082 65.288L105.549 71.224Z" fill="#8D8C8C"/>
<path d="M28.6694 53.8937C28.6694 53.8937 54.6144 54.975 56.6687 54.337C56.6687 54.337 65.7011 45.752 78.2986 54.1965C78.2986 54.1965 112.939 53.9262 116.015 53.3855C116.015 53.3855 108.494 59.6675 107.396 63.6681C107.396 63.6681 87.1027 63.0518 82.9072 65.2359C78.7117 67.4199 64.9294 81.7355 51.0493 65.571C51.0493 65.571 34.528 62.1435 31.4846 62.5111C31.4302 62.5111 30.4955 59.3431 28.6694 53.8937Z" fill="#434443"/>
<path d="M30.3759 59.3092L52.5057 62.3259C52.5057 62.3259 64.7446 81.3988 81.7224 62.5097L109.7 59.7201L111.504 57.7523C111.504 57.7523 80.4833 60.3797 78.9833 61.2014C78.9833 61.2014 66.3858 78.0038 55.9839 61.342L29.5498 56.498L30.3759 59.3092Z" fill="#D6E3DD"/>
<path d="M74.3324 62.7818C74.3324 65.7444 70.9738 68.1879 66.8434 68.1879C62.7131 68.1879 59.3545 65.7876 59.3545 62.7818C59.3545 59.776 62.7131 57.4297 66.8543 57.4297C70.9955 57.4297 74.3324 59.8192 74.3324 62.7818Z" fill="#D6E3DD"/>
<path d="M31.6046 65.0493C31.6046 65.0493 14.2681 61.4164 10.616 63.049C10.616 63.049 7.69216 62.8652 6.96392 61.9678C6.96392 61.9678 6.68132 54.3992 11.616 48.5497C13.8497 45.9565 16.8024 44.0761 20.1049 43.1436C21.7394 46.0191 23.6388 48.7375 25.7787 51.2636V51.2636C26.9526 52.5395 28.1264 53.4261 29.0395 53.4261C29.0612 53.4261 33.4415 63.7843 31.6046 65.0493Z" fill="#D6E3DD"/>
<path d="M148.536 49.7058C148.536 49.7058 145.797 67.1353 136.21 63.0482C136.21 63.0482 115.678 63.3185 106.635 64.4214C106.635 64.4214 109.146 56.0418 119.221 50.9709C121.91 49.614 124.768 48.6212 127.721 48.0191C127.721 48.0191 141.036 44.1158 142.047 42.667C142.047 42.667 147.536 43.7482 148.492 47.4785C148.684 48.207 148.699 48.9704 148.536 49.7058V49.7058Z" fill="#D6E3DD"/>
<path opacity="0.62" d="M25.7775 51.2623C25.4189 51.2623 15.9952 51.8893 11.6475 48.5704C13.8811 45.9776 16.8339 44.0974 20.1364 43.165C21.7617 46.0314 23.6501 48.742 25.7775 51.2623V51.2623Z" fill="white"/>
<path opacity="0.57" d="M148.504 47.5217L148.417 47.6623C148.417 47.6623 134.58 55.7823 119.222 50.9709C121.91 49.614 124.768 48.6212 127.721 48.0191C127.721 48.0191 141.036 44.1158 142.047 42.667C142.058 42.7102 147.547 43.8347 148.504 47.5217Z" fill="white"/>
<path d="M178.937 41.8018C178.937 41.8018 189.611 62.9182 180.307 98.8692" stroke="#8D8C8C" stroke-width="0.5" stroke-miterlimit="10" stroke-linecap="round"/>
<g style="mix-blend-mode:multiply">
<path d="M191.851 94.0055C191.242 98.4385 189.764 103.737 186.09 104.461L168.069 106.256C168.069 106.256 169.275 99.1197 168.775 96.3409L173.493 91.6592C173.493 91.6592 188.71 99.8225 190.47 93.8216C190.764 92.7945 191.22 92.9891 191.851 94.0055Z" fill="#8D8C8C"/>
</g>
</g>
</svg>
