<svg width="214" height="133" viewBox="0 0 214 133" fill="none" xmlns="http://www.w3.org/2000/svg">
<g opacity="0.6">
<path d="M129.675 11.7454C129.675 12.2262 128.887 12.5977 127.923 12.5758C126.96 12.554 126.193 12.1715 126.204 11.7017C126.215 11.2319 126.993 10.8604 127.956 10.8713C128.92 10.8823 129.675 11.2756 129.675 11.7454Z" fill="#111111"/>
<path d="M99.3842 106.472C99.5951 91.8946 92.4619 79.9712 83.452 79.8404C74.442 79.7097 66.967 91.4211 66.7562 105.999C66.5454 120.576 73.6785 132.5 82.6885 132.63C91.6985 132.761 99.1734 121.05 99.3842 106.472Z" fill="#3D4039"/>
<path d="M83.9606 107.198C83.8183 116.977 80.3361 124.855 76.186 124.8C72.0359 124.745 68.7728 116.758 68.9151 106.979C69.0575 97.2004 72.5396 89.3226 76.6897 89.3772C80.8399 89.4319 84.103 97.4299 83.9606 107.198Z" fill="#D6E3DD"/>
<path d="M83.2026 107.187C83.0931 114.912 80.3336 121.14 77.0486 121.096C73.7635 121.052 71.1903 114.748 71.3107 107.012C71.4312 99.2766 74.1687 93.0596 77.4537 93.0596C80.7388 93.0596 83.3121 99.4623 83.2026 107.187Z" fill="#3D4039"/>
<path d="M82.8655 113.557L83.6867 107.471L79.5257 106.379C79.5257 106.04 79.5257 105.701 79.4271 105.385L83.3363 101.801L81.8033 96.7966L78.5183 102.598C78.3279 102.193 78.0686 101.823 77.7518 101.506L78.2117 90.8418L74.5653 91.1587L75.3099 101.309C75.1002 101.461 74.9123 101.641 74.7514 101.844L71.8606 95.8351L70.678 100.206L73.5797 104.292C73.514 104.532 73.4593 104.762 73.4155 105.013L69.2763 103.418L69.0464 107.668L73.2293 108.313C73.2293 108.597 73.2951 108.87 73.3389 109.143L69.2982 111.044L70.3166 114.923L73.963 111.339C74.1626 111.782 74.4244 112.194 74.7405 112.563L71.324 119.02L73.6564 122.561L76.8429 113.361C77.1013 113.277 77.3424 113.147 77.5547 112.978L78.5183 122.692L81.7376 118.594L78.7701 111.197C78.9612 110.767 79.115 110.321 79.23 109.864L82.8655 113.557Z" fill="#D6E3DD"/>
<path d="M125.053 102.757C125.202 92.4871 118.116 84.0575 109.227 83.9285C100.338 83.7995 93.0117 92.0199 92.8631 102.289C92.7146 112.559 99.8002 120.988 108.689 121.117C117.578 121.246 124.905 113.026 125.053 102.757Z" fill="#3D4039"/>
<path d="M111.126 102.947C111.017 110.66 107.513 116.866 103.297 116.801C99.0812 116.735 95.7632 110.442 95.8728 102.728C95.9823 95.0141 99.4863 88.808 103.702 88.8736C107.918 88.9391 111.247 95.2435 111.126 102.947Z" fill="#D6E3DD"/>
<path d="M36.601 104.28C36.4367 115.753 29.779 123.183 18.2704 123.019C6.7618 122.855 0.301207 113.273 0.46546 101.8C0.629712 90.3277 7.49546 81.2152 18.9931 81.3791C30.4908 81.543 36.7105 92.8079 36.601 104.28Z" fill="#3D4039"/>
<path d="M26.0226 104.705C25.9021 113.074 21.752 118.494 14.6016 118.396C7.4511 118.297 3.48714 111.326 3.65139 102.957C3.81565 94.5873 8.03146 87.9223 15.1929 88.0316C22.3543 88.1409 26.143 96.3355 26.0226 104.705Z" fill="#D6E3DD"/>
<path d="M24.2268 104.475C24.1283 111.14 20.7885 115.401 15.0396 115.401C9.2908 115.401 6.09335 109.774 6.18095 103.109C6.26855 96.444 9.7288 91.0902 15.4776 91.2323C21.2265 91.3743 24.3254 97.8098 24.2268 104.475Z" fill="#3D4039"/>
<path d="M20.4606 102.989C20.4058 107.206 17.7668 110.637 14.5913 110.55C11.4158 110.462 8.87532 107.043 8.93007 102.825C8.98482 98.6076 11.6238 95.1767 14.8103 95.2532C17.9968 95.3297 20.5263 98.7605 20.4606 102.989Z" fill="#D6E3DD"/>
<path d="M14.1202 100.641C14.118 100.827 14.0606 101.008 13.9554 101.161C13.8501 101.315 13.7016 101.433 13.5287 101.502C13.3558 101.571 13.1663 101.588 12.9841 101.549C12.8018 101.511 12.6351 101.42 12.5049 101.287C12.3748 101.154 12.2871 100.985 12.2528 100.803C12.2186 100.62 12.2395 100.431 12.3127 100.26C12.386 100.09 12.5084 99.9443 12.6644 99.8428C12.8205 99.7413 13.0032 99.6883 13.1894 99.6905C13.3131 99.6919 13.4353 99.7176 13.549 99.7662C13.6627 99.8147 13.7657 99.8851 13.8521 99.9734C13.9386 100.062 14.0067 100.166 14.0527 100.281C14.0987 100.395 14.1216 100.518 14.1202 100.641Z" fill="#3D4039"/>
<path d="M17.8649 101.155C17.8634 101.278 17.8377 101.4 17.789 101.513C17.7404 101.627 17.6698 101.73 17.5813 101.816C17.4929 101.902 17.3882 101.97 17.2734 102.016C17.1586 102.062 17.0359 102.085 16.9122 102.083C16.6634 102.078 16.4266 101.975 16.2527 101.797C16.0787 101.62 15.9814 101.381 15.9814 101.133C15.9872 100.885 16.0904 100.65 16.2688 100.479C16.4471 100.307 16.6862 100.212 16.9341 100.215C17.0573 100.215 17.1792 100.239 17.2928 100.287C17.4065 100.334 17.5096 100.403 17.5962 100.491C17.6827 100.578 17.7511 100.682 17.7972 100.796C17.8433 100.91 17.8663 101.032 17.8649 101.155V101.155Z" fill="#3D4039"/>
<path d="M17.3955 105.57C17.3705 105.8 17.2611 106.013 17.0883 106.168C16.9155 106.323 16.6915 106.409 16.4593 106.409C16.2271 106.409 16.0031 106.323 15.8303 106.168C15.6575 106.013 15.5481 105.8 15.5231 105.57C15.5088 105.439 15.5224 105.306 15.563 105.181C15.6035 105.055 15.6701 104.939 15.7585 104.841C15.8468 104.743 15.9548 104.665 16.0756 104.611C16.1963 104.557 16.3271 104.529 16.4593 104.529C16.5915 104.529 16.7223 104.557 16.843 104.611C16.9637 104.665 17.0718 104.743 17.1601 104.841C17.2484 104.939 17.315 105.055 17.3556 105.181C17.3962 105.306 17.4098 105.439 17.3955 105.57V105.57Z" fill="#3D4039"/>
<path d="M13.2774 105.178C13.2524 105.408 13.143 105.621 12.9701 105.776C12.7973 105.93 12.5733 106.016 12.3411 106.016C12.1089 106.016 11.8849 105.93 11.7121 105.776C11.5393 105.621 11.4299 105.408 11.4049 105.178C11.3907 105.046 11.4043 104.914 11.4448 104.788C11.4854 104.663 11.552 104.547 11.6403 104.449C11.7286 104.351 11.8367 104.272 11.9574 104.218C12.0782 104.165 12.2089 104.137 12.3411 104.137C12.4734 104.137 12.6041 104.165 12.7248 104.218C12.8456 104.272 12.9536 104.351 13.042 104.449C13.1303 104.547 13.1969 104.663 13.2374 104.788C13.278 104.914 13.2916 105.046 13.2774 105.178Z" fill="#3D4039"/>
<path d="M17.0323 96.1266L14.7656 95.9628L14.689 89.5928L17.3827 89.6583L17.0323 96.1266Z" fill="#D6E3DD"/>
<path d="M15.5321 109.272L13.353 109.054L13.0464 115.795L16.1453 116.025L15.5321 109.272Z" fill="#D6E3DD"/>
<path d="M19.082 107.95L17.0781 109.272L19.1149 115.118L21.5458 113.665L19.082 107.95Z" fill="#D6E3DD"/>
<path d="M13.3658 96.7496L11.4495 98.0607L8.94189 92.0731L11.6904 90.2812L13.3658 96.7496Z" fill="#D6E3DD"/>
<path d="M10.0466 99.6565L9.58672 102.388L4.4292 101.634L4.87816 98.3672L10.0466 99.6565Z" fill="#D6E3DD"/>
<path d="M20.4288 103.23L19.936 105.853L25.3345 107.131L25.9696 103.394L20.4288 103.23Z" fill="#D6E3DD"/>
<path d="M18.2168 96.7303L19.4761 98.9811L23.8123 94.6762L22.0275 92.2178L18.2168 96.7303Z" fill="#D6E3DD"/>
<path d="M10.9787 106.627L12.5336 108.517L8.52583 113.161L6.36865 110.429L10.9787 106.627Z" fill="#D6E3DD"/>
<path d="M209.779 107.052C209.954 94.7857 201.949 84.7248 191.899 84.5807C181.849 84.4366 173.559 94.2639 173.384 106.531C173.209 118.797 181.214 128.858 191.264 129.002C201.314 129.146 209.604 119.319 209.779 107.052Z" fill="#3D4039"/>
<path d="M199.329 107.264C199.176 117.644 193.405 125.981 186.43 125.839C179.455 125.697 173.936 117.24 174.089 106.86C174.242 96.4799 180.002 88.1323 186.977 88.2853C193.953 88.4382 199.482 96.8405 199.329 107.264Z" fill="#D6E3DD"/>
<path d="M194.281 106.17C194.183 113.479 190.405 119.347 185.85 119.281C181.294 119.215 177.703 113.239 177.801 105.94C177.9 98.6414 181.689 92.7631 186.233 92.8287C190.777 92.8942 194.391 98.849 194.281 106.17Z" fill="#3D4039"/>
<path d="M97.3291 113.72C97.3291 113.72 166.994 117.26 180.145 116.244C193.296 115.228 191.719 104.367 191.719 104.367L97.9204 105.809C97.9204 105.809 97.362 111.71 97.3291 113.72Z" fill="#2A2B2A"/>
<path d="M213.149 106.29C213.149 106.29 209.634 106.968 209.426 103.559L175.272 104.313L173.476 106.607L147.371 107.132L145.433 104.597L101.895 105.493L101.49 106.52C101.102 107.506 100.449 108.367 99.6033 109.007C98.7571 109.647 97.7503 110.042 96.6937 110.147C95.8944 110.224 95.0184 110.311 94.1533 110.366C92.63 110.491 91.1142 110.048 89.9001 109.121C88.6861 108.194 87.8604 106.851 87.5832 105.351C86.1816 97.8008 82.798 83.4328 76.7535 78.6034C75.6503 77.6708 74.2847 77.102 72.8443 76.9754C72.8443 76.9754 57.5141 79.0405 67.2269 112.54L34.6283 111.743C34.6283 111.743 22.3641 107.263 20.8092 104.946C19.2542 102.63 14.8413 68.7808 7.29668 80.9744C6.59688 82.5588 6.26737 84.2812 6.33306 86.0114L4.42773 88.1201C4.6876 82.4584 5.90182 76.8807 8.01939 71.6216C8.18364 71.2173 8.35884 70.813 8.54499 70.3978C10.7131 65.2817 14.191 60.8242 18.6301 57.4722C18.6301 57.4722 42.5781 19.9953 63.0111 16.7174C63.0111 16.7174 124.222 6.00975 170.728 16.3022C170.728 16.3022 187.909 34.2103 191.018 41.4325C191.807 43.2572 195.639 44.8633 198.475 46.1963C200.14 46.983 201.465 47.6823 201.64 48.2723C201.64 48.2723 204.925 58.7068 204.619 63.569C204.603 63.8523 204.633 64.1362 204.706 64.4103C204.85 65.065 205.208 65.6532 205.724 66.082C208.955 69.0211 216.532 78.6362 213.149 106.29Z" fill="#8D8C8C"/>
<path d="M176.554 102.369L144.722 102.981L147.339 107.122L173.455 106.609L176.554 102.369Z" stroke="#111111" stroke-miterlimit="10"/>
<path d="M103.145 14.5322C99.5146 14.9163 95.9467 15.7494 92.5229 17.0124C93.9464 14.1825 76.886 15.0785 71.1372 15.4937C87.9676 13.1992 130.334 8.22775 164.586 15.1659C164.794 15.4827 121.453 12.4016 103.145 14.5322Z" fill="#8D8C8C"/>
<path d="M92.1176 60.4795C97.9212 83.7086 95.5778 88.4287 151.248 88.1009C151.248 88.1009 188.994 87.7403 195.827 86.9209C198.465 86.6149 198.444 77.1856 195.454 65.7131C195.454 65.7131 188.315 79.9172 168.166 81.6544C148.018 83.3917 90.9897 55.9888 92.1176 60.4795Z" fill="#8D8C8C"/>
<path d="M104.042 47.7246C104.042 47.7246 188.545 52.2481 194.852 48.9374C194.852 48.9374 196.582 78.7987 188.862 79.7165C174.824 81.3882 134.199 84.535 117.533 77.6952C110.24 74.7014 105.094 49.0795 104.042 47.7246Z" fill="#8D8C8C"/>
<path d="M129.315 55.667C129.315 55.667 129.797 72.0563 136.981 72.3622L172.196 72.69C172.196 72.69 178.963 74.5693 177.441 56.5302L129.315 55.667Z" fill="#8D8C8C"/>
<g style="mix-blend-mode:multiply">
<g style="mix-blend-mode:multiply">
<g style="mix-blend-mode:multiply">
<g style="mix-blend-mode:multiply">
<path d="M177.484 57.7788C177.484 57.3745 177.484 56.9703 177.397 56.5332H177.32C177.386 57.003 177.44 57.3745 177.484 57.7788Z" fill="#8D8C8C"/>
</g>
</g>
<g style="mix-blend-mode:multiply">
<g style="mix-blend-mode:multiply">
<path d="M173.269 70.0404L147.547 72.4661L172.152 72.6955C172.152 72.6955 176.225 73.7881 177.342 65.8994C176.236 70.543 173.269 70.0404 173.269 70.0404Z" fill="#8D8C8C"/>
</g>
</g>
<g style="mix-blend-mode:multiply">
<g style="mix-blend-mode:multiply">
<path d="M131.23 66.5518C131.624 67.675 132.154 68.7463 132.807 69.7422C132.19 68.726 131.663 67.6586 131.23 66.5518V66.5518Z" fill="#8D8C8C"/>
</g>
</g>
</g>
</g>
<path d="M144.81 57.8161L164.814 58.1018C165.287 58.1086 165.739 58.3027 166.068 58.6414C166.398 58.9802 166.58 59.4358 166.573 59.9081L166.443 68.9431C166.434 69.4135 166.238 69.8609 165.899 70.1878C165.56 70.5146 165.105 70.6943 164.633 70.6875L144.597 70.4014C144.364 70.398 144.134 70.349 143.92 70.2569C143.706 70.1649 143.512 70.0318 143.35 69.8651C143.188 69.6984 143.06 69.5014 142.974 69.2854C142.888 69.0694 142.845 68.8386 142.848 68.6062L142.978 59.5711C142.98 59.335 143.029 59.1016 143.123 58.8847C143.216 58.6679 143.353 58.4719 143.523 58.3083C143.694 58.1448 143.896 58.017 144.117 57.9325C144.338 57.8479 144.573 57.8084 144.81 57.8161V57.8161Z" fill="#D6E3DD"/>
<path d="M204.707 64.519C204.072 65.2839 198.225 66.6169 195.038 67.3052C194.773 67.3605 194.499 67.3546 194.237 67.2879C193.974 67.2212 193.731 67.0955 193.525 66.9205C193.319 66.7454 193.156 66.5256 193.048 66.278C192.94 66.0303 192.89 65.7612 192.903 65.4915C192.968 64.0055 193.176 62.006 193.406 59.8863C193.987 54.7292 194.852 48.9601 194.852 48.9601C194.677 47.7036 198.367 46.3488 198.367 46.3488L198.476 46.2832C200.141 47.0699 201.455 47.7473 201.641 48.3373C202.629 51.5704 203.448 54.8527 204.094 58.1709V58.1709C204.477 59.9845 204.653 61.8355 204.619 63.6886C204.605 63.9683 204.634 64.2486 204.707 64.519Z" fill="#D6E3DD"/>
<path d="M74.794 54.8818C74.794 54.8818 63.6139 80.318 63.0335 83.5193C62.4532 86.7207 61.9385 105.186 61.9385 105.186L20.8316 104.946C19.2548 102.607 14.8638 68.7799 7.31914 80.9735C6.61934 82.5579 6.28983 84.2803 6.35552 86.0105L4.4502 88.1193C4.70307 82.4587 5.90988 76.8812 8.01995 71.6207C8.06332 71.1682 8.24705 70.7404 8.54555 70.397C8.54555 70.397 12.0277 62.0821 25.6497 58.247C27.227 57.7948 28.8282 57.43 30.4459 57.1544C30.4459 57.1544 42.1954 52.7839 54.372 48.6757H54.4815C65.8368 44.8297 77.4768 41.2131 80.4005 41.5081C80.4005 41.4972 74.1479 50.4457 74.794 54.8818Z" fill="#8D8C8C"/>
<path d="M74.794 54.8818C74.794 54.8818 63.6139 80.318 63.0335 83.5193C62.4532 86.7207 61.9385 105.186 61.9385 105.186L20.8316 104.946C19.2548 102.607 14.8638 68.7799 7.31914 80.9735C6.61934 82.5579 6.28983 84.2803 6.35552 86.0105L4.4502 88.1193C4.70307 82.4587 5.90988 76.8812 8.01995 71.6207C8.06332 71.1682 8.24705 70.7404 8.54555 70.397C8.54555 70.397 12.0277 62.0821 25.6497 58.247C27.227 57.7948 28.8282 57.43 30.4459 57.1544C30.4459 57.1544 42.1954 52.7839 54.372 48.6757H54.4815C65.8368 44.8297 77.4768 41.2131 80.4005 41.5081C80.4005 41.4972 74.1479 50.4457 74.794 54.8818Z" fill="#8D8C8C"/>
<path d="M6.2251 86.1313L6.33417 86.0111C6.33417 85.891 6.33417 85.7598 6.33417 85.6396C6.2873 85.801 6.25087 85.9653 6.2251 86.1313V86.1313Z" fill="#DADADA"/>
<path d="M80.3983 41.4969C76.5075 42.1273 72.6709 43.0552 68.9226 44.2722C68.9226 44.2722 62.6481 46.1296 54.4793 48.6427H54.3698C45.1169 51.5381 33.3893 55.3295 25.6475 58.2468C22.0778 59.5798 18.5847 60.5194 17.3692 61.328C17.3692 61.328 10.5911 67.4357 8.49959 70.3967C8.20109 70.7401 8.01736 71.1679 7.97398 71.6204C6.06299 76.3966 4.87824 81.4309 4.45898 86.5566C6.75852 59.252 76.0183 43.8898 78.931 44.1848C78.931 44.1848 81.4933 41.3767 80.3983 41.4969Z" fill="#DADADA"/>
<path d="M13.9339 81.8259C13.9339 81.8259 15.8501 76.2754 36.6007 73.5985C42.8642 72.7899 61.0524 67.8294 61.786 75.9257C61.8736 77.0184 63.33 80.2307 64.0527 79.5205C64.0527 79.5205 72.3091 65.1962 63.3629 65.4257C63.3848 65.4257 5.42559 64.038 13.9339 81.8259Z" fill="#DADADA"/>
<g style="mix-blend-mode:multiply">
<path d="M122.799 48.7939C122.799 48.7939 118.419 56.7592 137.976 56.2347L177.397 56.5297C177.397 56.5297 184.361 56.9012 185.795 49.974L122.799 48.7939Z" fill="#8D8C8C"/>
</g>
<path d="M149.724 14.7794L129.61 14.4922L129.566 17.5731L149.68 17.8603L149.724 14.7794Z" fill="#8D8C8C"/>
<path d="M127.344 11.3414L128.363 11.6473L135.82 0.305934L134.79 0L127.344 11.3414Z" fill="#111111"/>
<path d="M159.342 49.1773C158.947 50.849 156.418 51.6794 153.702 51.0347C150.987 50.3901 149.103 48.5217 149.497 46.85C149.892 45.1783 152.421 44.337 155.137 44.9816C157.852 45.6263 159.747 47.5056 159.342 49.1773Z" fill="#D6E3DD"/>
<path d="M209.416 104.433L175.262 105.198L173.477 107.482L147.372 108.006L145.434 105.471L101.885 106.367C101.885 106.367 102.717 99.5491 116.558 99.5382C137.364 99.5382 199.878 98.9482 199.878 98.9482C199.878 98.9482 212.318 98.5221 209.416 104.433Z" fill="#3D4039"/>
<path d="M141.208 99.297L146.913 108.158L173.5 107.579L179.347 99.002C179.347 99.002 153.121 99.1331 141.208 99.297Z" fill="#D6E3DD"/>
<path d="M67.2601 112.541C67.2601 112.541 63.5589 89.4652 79.1191 81.1066C79.1191 81.1066 73.8849 71.7975 67.501 78.4625C67.49 78.4625 56.3099 82.5926 67.2601 112.541Z" fill="#2A2B2A"/>
<path d="M109.769 66.1597L96.892 64.4115C96.361 64.3463 95.8494 64.1718 95.3895 63.8991C94.9296 63.6264 94.5314 63.2614 94.2202 62.8272C93.4756 61.7346 92.3477 60.2377 91.1651 58.4567C89.6211 56.2059 87.9458 53.6383 86.785 51.4749C86.5325 51.0365 86.3984 50.5402 86.396 50.0345C86.3936 49.5289 86.523 49.0313 86.7715 48.5906C87.0199 48.1499 87.3789 47.7812 87.8132 47.5206C88.2475 47.2601 88.7422 47.1166 89.2488 47.1044L102.301 46.8531C102.949 46.8413 103.585 47.0207 104.131 47.3687C104.676 47.7166 105.106 48.2177 105.367 48.8089L109.999 59.7351L111.708 63.7341C111.822 64.0267 111.858 64.3444 111.811 64.6551C111.764 64.9659 111.636 65.2589 111.44 65.5046C111.243 65.7504 110.986 65.9403 110.692 66.0553C110.399 66.1702 110.081 66.2062 109.769 66.1597V66.1597Z" fill="#D6E3DD"/>
<path opacity="0.57" d="M109.768 66.157L96.891 64.4088C96.36 64.3436 95.8484 64.1691 95.3885 63.8964C94.9285 63.6237 94.5304 63.2587 94.2192 62.8245C93.4745 61.7319 92.3467 60.235 91.1641 58.454L94.8871 57.0664C99.7785 58.5874 104.847 59.4689 109.965 59.6887L111.674 63.6877C111.797 63.9796 111.84 64.2989 111.799 64.613C111.759 64.9271 111.635 65.2248 111.441 65.4757C111.248 65.7267 110.991 65.9219 110.697 66.0416C110.403 66.1613 110.083 66.2011 109.768 66.157V66.157Z" fill="white"/>
<path d="M47.8574 51.2881C43.9898 57.7682 42.1766 65.2639 42.656 72.7908C42.656 73.0312 42.656 73.2716 42.656 73.512C43.751 86.5469 43.6306 104.925 43.6306 104.925" stroke="#8D8C8C" stroke-width="0.5" stroke-miterlimit="10" stroke-linecap="round"/>
<path d="M190.997 41.4886C182.149 46.9517 96.9568 41.6525 96.9568 41.6525C94.5916 40.4943 90.3867 40.4616 86.1599 40.8549C81.7381 41.3063 77.3493 42.0361 73.0198 43.0401C56.1565 47.0828 21.105 59.637 18.269 61.5163C16.2432 62.8493 8.0415 72.3005 8.0415 72.3005V71.6231C10.1974 66.0174 13.8707 61.119 18.6522 57.4737C18.6522 57.4737 42.6002 19.9968 63.0332 16.7189C63.0332 16.7189 65.9788 16.2054 71.0816 15.5061H71.1582C87.9886 13.2116 127.99 8.9504 162.581 14.7413L164.771 15.1346H164.859C166.852 15.4843 168.819 15.874 170.761 16.3037C171.286 16.861 187.953 34.332 190.997 41.4886Z" fill="#434443"/>
<path d="M190.996 41.4877C182.149 46.9508 96.9565 41.6516 96.9565 41.6516C96.1066 41.272 95.2071 41.0145 94.2847 40.8868C91.5861 40.5622 88.8583 40.5622 86.1597 40.8868L80.3999 41.4987C80.3999 41.4987 84.5391 14.5328 101.205 14.4235C101.205 14.4235 146.254 12.872 164.639 15.1228H164.727C166.73 15.3081 168.708 15.6999 170.629 16.2919V16.2919C170.804 16.4777 172.885 18.652 175.655 21.755C181.141 27.6224 189.004 36.7785 190.996 41.4877Z" fill="#D6E3DD"/>
<path d="M54.1201 48.436C54.1201 48.436 62.1794 22.7703 67.1399 19.5471C67.1399 19.5471 82.4701 18.1595 84.3754 20.6397C84.3754 20.6397 73.6661 38.1216 74.137 42.7434C74.137 42.7434 54.1201 48.3923 54.1201 48.7419" fill="#D6E3DD"/>
<path d="M31.9229 53.1132C31.9229 53.1132 45.1178 48.6662 47.1545 49.9446C47.1545 49.9446 55.2795 25.9069 61.6744 19.9521C61.6744 19.9521 52.4106 20.9355 38.252 35.3581C34.967 38.7015 32.3828 51.7802 31.9229 53.1132Z" fill="#D6E3DD"/>
<path d="M33.687 40.611C33.9279 40.2177 34.8587 38.688 34.355 41.0262L31.07 53.4165C31.07 53.4165 27.5002 54.3671 26.5256 51.8868C26.4818 51.8978 32.2197 43.0148 33.687 40.611Z" fill="#D6E3DD"/>
<path d="M32.2196 49.4093C32.2196 49.4093 29.0769 48.6008 28.2776 52.6872C28.2776 52.6872 27.0183 56.8828 24.8502 55.1783C23.1967 53.8672 24.9706 47.4426 24.9706 47.4426C24.9706 47.4426 13.8562 43.5747 13.1116 51.2558C12.7941 54.5337 15.3016 56.7954 24.2808 57.3089C24.2808 57.3089 29.4383 57.5165 30.4567 57.1232C30.5005 57.1669 31.9459 50.928 32.2196 49.4093Z" fill="#2A2B2A"/>
<path d="M175.765 21.7444C175.377 21.6034 175.009 21.4124 174.67 21.1763C166.173 15.5274 123.884 18.554 106.966 17.5269C85.35 16.2267 94.6357 40.5484 94.6357 40.5484L80.291 41.8486C80.291 41.8486 84.9667 13.1892 101.304 14.3911C101.304 14.3911 144.01 11.3645 164.739 15.0904H164.826C166.829 15.2756 168.807 15.6674 170.728 16.2595C170.915 16.4998 172.995 18.6742 175.765 21.7444Z" fill="#8D8C8C"/>
<path d="M118.178 17.8225C118.178 17.8225 104.49 18.3469 103.515 26.0499C103.077 29.4698 100.23 37.5006 110.622 37.9158C110.622 37.9158 139.41 41.0625 140.855 43.4881C140.855 43.4881 97.9636 43.8487 94.58 41.3029C92.0067 39.3471 88.9626 19.5597 101.15 17.6804C106.788 16.7016 112.557 16.7497 118.178 17.8225V17.8225Z" fill="#434443"/>
<path d="M175.765 21.743C172.994 18.6728 170.914 16.4984 170.739 16.2799C169.445 15.8525 168.114 15.5488 166.764 15.373C167.672 16.3346 168.954 17.744 170.52 19.4376C175.852 25.3159 183.758 34.472 185.762 39.1812C176.925 44.6443 92.0288 40.4924 94.3174 40.8639C95.3467 41.0278 95.8285 42.0439 96.9892 41.6287C96.9892 41.6287 182.181 46.9498 191.029 41.4648C189.003 36.7775 181.141 27.6213 175.765 21.743Z" fill="#3D4039"/>
<g opacity="0.51">
<path opacity="0.51" d="M87.6733 21.0735L84.2153 14.1621L43.9982 34.196L47.4562 41.1074L87.6733 21.0735Z" fill="white"/>
<path opacity="0.51" d="M91.0185 26.9997L89.2871 23.5391L49.07 43.5729L50.8014 47.0335L91.0185 26.9997Z" fill="white"/>
</g>
<g opacity="0.51">
<path opacity="0.51" d="M65.9888 28.2063L62.9751 21.0908L21.5705 38.5511L24.5843 45.6665L65.9888 28.2063Z" fill="white"/>
<path opacity="0.51" d="M68.9494 34.3225L67.4404 30.7598L26.0358 48.22L27.5449 51.7828L68.9494 34.3225Z" fill="white"/>
</g>
</g>
</svg>
