<svg width="296" height="133" viewBox="0 0 296 133" fill="none" xmlns="http://www.w3.org/2000/svg">
<g opacity="0.6">
<path d="M293.729 81.6079C293.729 81.6079 293.684 83.0295 293.499 85.0385C293.048 89.8296 291.821 97.9878 288.509 98.9256C288.509 98.9256 281.671 100.665 280.316 99.9239C280.316 99.9239 280.176 77.246 260.982 72.1969C249.611 69.2351 227.725 69.9657 225.488 103.047C225.488 103.047 96.7479 105.222 88.0861 106.949C88.0861 106.949 84.6883 106.488 85.2338 101.325C85.2382 100.358 85.1886 99.3922 85.0852 98.4317C84.4399 91.5723 80.8611 74.6529 61.9974 71.515C61.9974 71.515 34.8645 66.5558 30.0472 96.3367C29.8176 97.7317 29.6427 99.2014 29.5318 100.754C29.4208 102.307 29.3292 103.918 29.3192 105.621C29.3192 105.621 19.058 108.379 14.6913 105.152C14.6913 105.152 4.00223 105.643 3.8016 105.096L3.30244 102.208L3.57258 101.863C4.49268 100.688 7.25298 96.8731 4.75757 96.6832C3.38292 90.8558 2.97354 84.8403 3.54492 78.8641C4.67802 68.7681 9.67679 57.7887 25.6451 55.9031C25.6451 55.9031 64.0633 46.7207 74.4808 41.0051C93.4532 30.5986 125.436 9.19682 173.313 9.87908C193.994 10.1723 228.05 8.37668 255.858 14.4975C256.757 15.6213 257.429 16.9028 257.839 18.275C257.839 18.275 277.539 37.2115 278.672 38.1664C279.574 38.9853 280.543 39.7416 281.374 40.5377C282.685 41.7015 283.896 42.9684 284.995 44.3259C288.321 48.5109 289.653 53.4437 286.544 61.1135C286.623 61.1103 295.696 74.7455 293.729 81.6079Z" fill="#C4C4C4"/>
<path d="M36.1597 106.686L29.4845 105.806C29.4845 105.806 26.0837 72.9692 56.5348 71.0174C68.1191 70.2831 87.8878 76.8933 85.9032 105.296C85.9032 105.296 83.4424 110.222 78.1295 111.222C78.1295 111.222 92.5284 85.1728 63.2157 76.8045C52.9167 73.8141 32.8798 82.1336 36.1597 106.686Z" fill="#2A2B2A"/>
<path d="M229.447 103.803L225.191 104.213C225.191 104.213 222.106 74.9509 251.1 71.4606C262.624 70.0747 282.08 78.5556 280.373 100.893C280.373 100.893 279.892 98.6806 276.449 99.8973C276.449 99.8973 276.214 84.319 258.849 78.3766C248.701 74.889 229.257 79.5748 229.447 103.803Z" fill="#2A2B2A"/>
<path d="M82.3974 98.5859C82.6775 85.6828 72.245 75.2597 59.0958 75.3053C45.9465 75.3508 35.0598 85.8479 34.7797 98.751C34.4995 111.654 44.9321 122.077 58.0813 122.032C71.2306 121.986 82.1173 111.489 82.3974 98.5859Z" fill="#3D4039"/>
<path d="M74.9543 99.1016C75.1604 89.6098 67.6346 81.9418 58.145 81.9747C48.6554 82.0076 40.7955 89.7289 40.5894 99.2207C40.3834 108.713 47.9092 116.381 57.3988 116.348C66.8884 116.315 74.7482 108.593 74.9543 99.1016Z" fill="#D6E3DD"/>
<path d="M70.0756 98.6505C70.0022 100.962 69.2264 103.218 67.8462 105.135C66.4659 107.051 64.5428 108.542 62.3192 109.42C60.0956 110.298 57.6709 110.524 55.3506 110.068C53.0303 109.613 50.9181 108.496 49.2802 106.861C47.6424 105.225 46.552 103.142 46.1465 100.875C45.741 98.6076 46.0386 96.2576 47.0016 94.1206C47.9647 91.9837 49.5502 90.1554 51.5585 88.8661C53.5667 87.5769 55.9079 86.8843 58.287 86.8756C59.8769 86.8767 61.4432 87.1821 62.8962 87.7744C64.3492 88.3668 65.6605 89.2345 66.7552 90.3279C67.85 91.4214 68.7067 92.7192 69.2764 94.1472C69.8461 95.5752 70.1177 97.1055 70.0756 98.6505V98.6505Z" fill="#3D4039"/>
<path d="M72.8865 101.343L73.2774 96.8537L63.8001 96.8321C63.743 96.6719 63.6859 96.5116 63.6112 96.3522L70.8933 90.646L67.9264 87.272L61.0156 93.681C60.8543 93.5944 60.6934 93.525 60.5325 93.4555L61.7787 84.318L57.1671 84.0865L56.7498 93.1411C56.5153 93.1936 56.2837 93.2592 56.0564 93.3377L50.081 86.3429L46.623 89.4445L52.9668 95.6236C52.6855 96.0242 52.4558 96.4562 52.2831 96.9093L42.9393 96.5724L42.9462 101.059L52.3143 100.606C52.318 100.751 52.4188 100.892 52.4752 101.027L45.2345 107.323L48.487 110.452L55.0525 103.673C55.3083 103.803 55.574 103.913 55.8476 104.004L54.0777 113.055L58.645 113.632L59.6777 104.093C59.8559 104.042 60.0315 103.982 60.2036 103.913L60.0996 103.995L65.7403 111.392L69.3904 108.547L63.0819 101.663C63.3308 101.301 63.5375 100.914 63.6982 100.509L72.8865 101.343Z" fill="#D6E3DD"/>
<path d="M56.8436 95.6775C56.8371 95.9297 56.7535 96.1766 56.6035 96.3871C56.4535 96.5975 56.2438 96.762 56.0009 96.8598C55.7579 96.9577 55.4926 96.9844 55.2385 96.9366C54.9845 96.8889 54.753 96.7688 54.5733 96.5915C54.3936 96.4143 54.2739 96.1878 54.2292 95.9408C54.1844 95.6937 54.2167 95.4372 54.322 95.2035C54.4273 94.9699 54.6007 94.7696 54.8206 94.628C55.0404 94.4865 55.2966 94.4099 55.557 94.4081C55.7305 94.4057 55.9017 94.4368 56.0607 94.4996C56.2197 94.5624 56.3632 94.6555 56.483 94.7737C56.6027 94.8918 56.6963 95.0326 56.7582 95.1877C56.8201 95.3429 56.8492 95.5094 56.8436 95.6775V95.6775Z" fill="#C6C6C6" stroke="#3D4039" stroke-width="0.1" stroke-miterlimit="10"/>
<path d="M62.4491 96.3503C62.4426 96.6025 62.359 96.8495 62.209 97.0599C62.059 97.2704 61.8493 97.4349 61.6064 97.5327C61.3634 97.6305 61.0981 97.6572 60.844 97.6095C60.5899 97.5617 60.3584 97.4416 60.1788 97.2644C59.9991 97.0871 59.8794 96.8607 59.8346 96.6136C59.7899 96.3666 59.8222 96.11 59.9275 95.8764C60.0327 95.6427 60.2062 95.4425 60.426 95.3009C60.6458 95.1593 60.9021 95.0828 61.1624 95.0809C61.5114 95.0808 61.8423 95.2139 62.0832 95.4516C62.3241 95.6892 62.4555 96.0122 62.4491 96.3503V96.3503Z" fill="#C6C6C6" stroke="#3D4039" stroke-width="0.1" stroke-miterlimit="10"/>
<path d="M61.6439 101.839C61.6374 102.091 61.5538 102.338 61.4038 102.548C61.2538 102.759 61.0441 102.923 60.8012 103.021C60.5582 103.119 60.2929 103.146 60.0388 103.098C59.7848 103.05 59.5533 102.93 59.3736 102.753C59.1939 102.575 59.0742 102.349 59.0294 102.102C58.9847 101.855 59.017 101.598 59.1223 101.365C59.2275 101.131 59.401 100.931 59.6208 100.789C59.8407 100.648 60.0969 100.571 60.3572 100.569C60.5304 100.568 60.7011 100.6 60.8596 100.663C61.018 100.726 61.1611 100.819 61.2806 100.937C61.4001 101.055 61.4937 101.196 61.5561 101.35C61.6184 101.505 61.6483 101.671 61.6439 101.839V101.839Z" fill="#C6C6C6" stroke="#3D4039" stroke-width="0.1" stroke-miterlimit="10"/>
<path d="M55.9833 101.154C55.9767 101.406 55.8932 101.653 55.7432 101.864C55.5932 102.074 55.3835 102.239 55.1405 102.336C54.8976 102.434 54.6323 102.461 54.3782 102.413C54.1241 102.365 53.8926 102.245 53.7129 102.068C53.5333 101.891 53.4135 101.664 53.3688 101.417C53.3241 101.17 53.3564 100.914 53.4616 100.68C53.5669 100.446 53.7404 100.246 53.9602 100.105C54.18 99.963 54.4363 99.8865 54.6966 99.8847C54.8698 99.8834 55.0405 99.9153 55.1989 99.9785C55.3574 100.042 55.5004 100.135 55.62 100.253C55.7395 100.371 55.8331 100.511 55.8954 100.666C55.9578 100.82 55.9876 100.986 55.9833 101.154V101.154Z" fill="#C6C6C6" stroke="#3D4039" stroke-width="0.1" stroke-miterlimit="10"/>
<path d="M277.473 98.5704C277.19 111.181 266.092 121.417 252.687 121.492C239.283 121.566 228.624 111.346 228.935 98.7677C229.245 86.1897 240.316 75.9207 253.72 75.8463C267.125 75.772 277.765 85.9504 277.473 98.5704Z" fill="#3D4039"/>
<path d="M269.577 99.0772C269.785 89.5821 262.26 81.9101 252.77 81.9413C243.281 81.9725 235.42 89.6952 235.212 99.1903C235.004 108.685 242.529 116.357 252.018 116.326C261.508 116.295 269.369 108.572 269.577 99.0772Z" fill="#D6E3DD"/>
<path d="M264.697 98.6335C264.626 100.948 263.85 103.207 262.47 105.126C261.089 107.045 259.165 108.539 256.939 109.418C254.713 110.298 252.286 110.524 249.963 110.068C247.641 109.613 245.526 108.496 243.886 106.858C242.247 105.22 241.155 103.135 240.75 100.866C240.345 98.5962 240.643 96.2437 241.608 94.1049C242.573 91.966 244.161 90.1365 246.172 88.8469C248.183 87.5574 250.527 86.8655 252.909 86.8586C256.119 86.8629 259.164 88.1055 261.374 90.3134C263.585 92.5212 264.78 95.5138 264.697 98.6335V98.6335Z" fill="#3D4039"/>
<path d="M267.507 101.326L267.889 96.8376L258.411 96.8161C258.361 96.6512 258.298 96.4907 258.222 96.3361L265.504 90.6211L262.538 87.2555L255.671 93.6541C255.518 93.5756 255.349 93.5066 255.188 93.4372L256.434 84.2993L251.805 84.0687L251.396 93.1231C251.159 93.1758 250.924 93.2416 250.694 93.3202L244.789 86.3131L241.331 89.4235L247.675 95.6027C247.393 96.0034 247.164 96.4353 246.991 96.8885L237.656 96.5512L237.619 101.04L246.916 100.59C246.964 100.734 247.021 100.868 247.077 101.003L239.845 107.307L243.071 110.446L249.628 103.659C249.888 103.789 250.156 103.903 250.432 103.998L248.689 113.065L253.256 113.633L254.289 104.094L254.806 103.923L254.702 104.005L260.343 111.403L263.994 108.558L257.693 101.664C257.942 101.302 258.149 100.915 258.31 100.51L267.507 101.326Z" fill="#D6E3DD"/>
<path d="M251.464 95.6228C251.458 95.875 251.374 96.1219 251.224 96.3324C251.074 96.5428 250.864 96.7073 250.621 96.8051C250.379 96.903 250.113 96.9297 249.859 96.8819C249.605 96.8342 249.374 96.7141 249.194 96.5368C249.014 96.3596 248.894 96.1331 248.85 95.8861C248.805 95.6391 248.837 95.3825 248.943 95.1488C249.048 94.9152 249.221 94.7149 249.441 94.5733C249.661 94.4318 249.917 94.3552 250.178 94.3534C250.527 94.3532 250.857 94.4864 251.098 94.724C251.339 94.9617 251.471 95.2846 251.464 95.6228V95.6228Z" fill="#C6C6C6" stroke="#3D4039" stroke-width="0.1" stroke-miterlimit="10"/>
<path d="M257.061 96.3073C257.054 96.5596 256.971 96.8065 256.821 97.0169C256.671 97.2274 256.461 97.3919 256.218 97.4897C255.975 97.5875 255.71 97.6142 255.456 97.5665C255.202 97.5187 254.97 97.3986 254.791 97.2214C254.611 97.0442 254.491 96.8177 254.446 96.5707C254.402 96.3236 254.434 96.0671 254.539 95.8334C254.645 95.5998 254.818 95.3995 255.038 95.2579C255.258 95.1163 255.514 95.0398 255.774 95.038C255.947 95.0368 256.118 95.0687 256.277 95.1318C256.435 95.195 256.578 95.2882 256.698 95.4061C256.817 95.524 256.911 95.6643 256.973 95.819C257.035 95.9736 257.065 96.1396 257.061 96.3073V96.3073Z" fill="#C6C6C6" stroke="#3D4039" stroke-width="0.1" stroke-miterlimit="10"/>
<path d="M256.256 101.8C256.25 102.052 256.166 102.299 256.016 102.509C255.866 102.72 255.656 102.884 255.413 102.982C255.171 103.08 254.905 103.106 254.651 103.059C254.397 103.011 254.166 102.891 253.986 102.714C253.806 102.536 253.686 102.31 253.642 102.063C253.597 101.816 253.629 101.559 253.735 101.326C253.84 101.092 254.013 100.892 254.233 100.75C254.453 100.609 254.709 100.532 254.97 100.53C255.143 100.528 255.314 100.559 255.473 100.622C255.632 100.684 255.776 100.778 255.896 100.896C256.015 101.014 256.109 101.155 256.171 101.31C256.233 101.465 256.262 101.631 256.256 101.8Z" fill="#C6C6C6" stroke="#3D4039" stroke-width="0.1" stroke-miterlimit="10"/>
<path d="M250.605 101.126C250.598 101.378 250.515 101.625 250.365 101.835C250.215 102.046 250.005 102.21 249.762 102.308C249.519 102.406 249.254 102.433 249 102.385C248.746 102.337 248.514 102.217 248.335 102.04C248.155 101.863 248.035 101.636 247.99 101.389C247.946 101.142 247.978 100.885 248.083 100.652C248.188 100.418 248.362 100.218 248.582 100.076C248.802 99.9347 249.058 99.8582 249.318 99.8563C249.667 99.8561 249.998 99.9893 250.239 100.227C250.48 100.465 250.611 100.788 250.605 101.126V101.126Z" fill="#C6C6C6" stroke="#3D4039" stroke-width="0.1" stroke-miterlimit="10"/>
<path d="M281.328 39.8352L281.275 39.8375C278.395 40.271 267.844 38.2174 267.844 38.2174C261.964 38.2915 254.95 38.5483 247.108 38.9413C203.274 41.1618 133.41 47.7927 88.0736 52.3452C61.8529 54.9912 43.8692 56.9335 43.8692 56.9335C30.9771 66.4959 3.50303 78.3345 3.50303 78.3345L3.41404 78.2879C4.56769 68.3688 9.58807 57.571 25.557 55.6726C25.557 55.6726 32.2435 54.0857 40.804 51.8225C52.7487 48.6676 68.3368 44.1814 74.4137 40.8985C93.4037 30.6226 125.425 9.50994 173.291 10.0408C193.966 10.2686 228.019 8.40605 255.809 14.3367C256.705 15.4379 257.375 16.6945 257.782 18.041V18.041C258.269 18.4991 275.007 34.2918 278.111 37.1079C278.337 37.3167 278.489 37.453 278.561 37.5087C279.539 38.2902 280.464 39.0572 281.328 39.8352Z" fill="#8D8C8C"/>
<path d="M169.131 54.2895C169.087 56.1813 164.988 57.7032 159.968 57.6898C154.948 57.6765 150.884 56.1151 150.954 54.2222C151.023 52.3293 155.087 50.8089 160.107 50.8223C165.128 50.8356 169.208 52.3707 169.131 54.2895Z" fill="#8D8C8C"/>
<path d="M240.812 48.4749C240.778 50.3661 236.679 51.8878 231.658 51.8745C226.638 51.8612 222.602 50.3243 222.636 48.4416C222.671 46.5589 226.779 45.0283 231.79 45.042C236.801 45.0557 240.856 46.6173 240.812 48.4749Z" fill="#8D8C8C"/>
<path d="M268.38 57.3494C268.359 58.4832 267.994 59.591 267.333 60.5327C266.671 61.4744 265.743 62.2078 264.665 62.64C263.587 63.0723 262.408 63.184 261.276 62.9611C260.144 62.7383 259.112 62.1908 258.308 61.3879C257.504 60.585 256.966 59.5627 256.761 58.4504C256.556 57.338 256.693 56.1855 257.156 55.1385C257.619 54.0915 258.386 53.1971 259.36 52.5683C260.335 51.9395 261.473 51.6046 262.631 51.6059C264.184 51.6099 265.661 52.2168 266.739 53.2935C267.817 54.3702 268.407 55.8288 268.38 57.3494V57.3494Z" fill="#8D8C8C"/>
<path d="M89.6337 36.9398C89.6337 36.9398 61.9921 52.1938 73.6907 52.2187L88.2185 52.0691C88.2185 52.0691 87.383 43.6207 89.6337 36.9398Z" fill="#C4C4C4"/>
<path d="M286.403 61.8628C281.534 62.4532 265.991 48.738 265.991 48.738C260.059 41.5852 284.299 44.9124 284.299 44.9124L284.882 44.9731C288.213 49.1748 289.558 54.1343 286.403 61.8628Z" fill="#D6E3DD"/>
<path d="M115.293 25.2565C122.245 22.5499 151.976 11.6828 171.812 13.8451C171.963 13.8657 172.107 13.9162 172.236 13.9936C172.364 14.071 172.475 14.1735 172.561 14.295C172.647 14.4164 172.706 14.5542 172.734 14.6997C172.763 14.8452 172.76 14.9953 172.727 15.1409C171.796 19.5128 168.383 35.2661 166.376 41.9959C166.2 42.5853 165.845 43.1118 165.359 43.5058C164.873 43.8998 164.278 44.1428 163.653 44.2026L113.003 49.0678L109.817 41.3732L113.253 27.3566C113.413 26.883 113.68 26.4487 114.033 26.0853C114.386 25.7219 114.817 25.4388 115.293 25.2565V25.2565Z" fill="#D6E3DD"/>
<path d="M115.293 25.2565C122.245 22.5499 151.976 11.6828 171.812 13.8451C171.963 13.8657 172.107 13.9162 172.236 13.9936C172.364 14.071 172.475 14.1735 172.561 14.295C172.647 14.4164 172.706 14.5542 172.734 14.6997C172.763 14.8452 172.76 14.9953 172.727 15.1409C171.796 19.5128 168.383 35.2661 166.376 41.9959C166.2 42.5853 165.845 43.1118 165.359 43.5058C164.873 43.8998 164.278 44.1428 163.653 44.2026L113.003 49.0678L109.817 41.3732L113.253 27.3566C113.413 26.883 113.68 26.4487 114.033 26.0853C114.386 25.7219 114.817 25.4388 115.293 25.2565V25.2565Z" fill="#D6E3DD"/>
<path d="M115.293 25.2565C122.245 22.5499 151.976 11.6828 171.812 13.8451C171.963 13.8657 172.107 13.9162 172.236 13.9936C172.364 14.071 172.475 14.1735 172.561 14.295C172.647 14.4164 172.706 14.5542 172.734 14.6997C172.763 14.8452 172.76 14.9953 172.727 15.1409C171.796 19.5128 168.383 35.2661 166.376 41.9959C166.2 42.5853 165.845 43.1118 165.359 43.5058C164.873 43.8998 164.278 44.1428 163.653 44.2026L113.003 49.0678L109.817 41.3732L113.253 27.3566C113.413 26.883 113.68 26.4487 114.033 26.0853C114.386 25.7219 114.817 25.4388 115.293 25.2565V25.2565Z" fill="#D6E3DD"/>
<path d="M115.293 25.2565C122.245 22.5499 151.976 11.6828 171.812 13.8451C171.963 13.8657 172.107 13.9162 172.236 13.9936C172.364 14.071 172.475 14.1735 172.561 14.295C172.647 14.4164 172.706 14.5542 172.734 14.6997C172.763 14.8452 172.76 14.9953 172.727 15.1409C171.796 19.5128 168.383 35.2661 166.376 41.9959C166.2 42.5853 165.845 43.1118 165.359 43.5058C164.873 43.8998 164.278 44.1428 163.653 44.2026L113.003 49.0678L109.817 41.3732L113.253 27.3566C113.413 26.883 113.68 26.4487 114.033 26.0853C114.386 25.7219 114.817 25.4388 115.293 25.2565V25.2565Z" fill="#D6E3DD"/>
<path d="M30.0265 100.73C29.8858 102.247 29.8174 103.835 29.8039 105.505C29.8039 105.505 19.5397 108.241 15.1808 105.087C15.1808 105.087 4.49351 105.601 4.29406 105.064L3.77448 102.225C3.77448 102.225 25.9063 101.627 29.5542 100.767C29.7075 100.722 29.8687 100.71 30.0265 100.73V100.73Z" fill="#8D8C8C"/>
<path d="M14.2204 98.8369C14.2204 98.8369 7.15265 102.07 3.8815 101.684C4.81374 100.492 7.61104 96.6222 5.08975 96.4374C5.08975 96.4374 7.70765 80.1785 14.6073 78.8486C14.6073 78.8486 19.8065 98.3691 14.2204 98.8369Z" fill="#8D8C8C"/>
<path d="M14.1269 98.9175C12.6376 94.6354 14.5265 78.9122 14.5265 78.9122C14.5265 78.9122 19.8698 98.4479 14.1269 98.9175Z" fill="#8D8C8C"/>
<path d="M227.132 78.3626C224.1 78.3575 222.401 72.299 222.401 72.299C222.831 66.2338 216.491 67.605 214.04 67.0824C174.582 58.6485 105.177 71.0695 90.4356 71.9197C89.2278 71.9709 78.9824 76.1886 78.9974 76.4051C72.1908 69.1766 61.5487 67.5229 54.9094 68.2385C26.4807 71.239 30.0017 96.4552 30.0017 96.4552L30.2604 96.6113C35.1371 67.5313 62.2114 72.2806 62.2114 72.2806C77.7409 74.7628 85.4189 86.9991 85.2328 98.4995C85.2816 98.0631 98.7192 100.024 100.164 99.6875L171.862 98.4281L211.145 97.7405C211.145 97.7405 217.536 98.7392 220.843 90.3471C221.008 89.9643 221.153 89.5489 221.298 89.1084C223.137 85.7753 225.224 82.569 227.542 79.5145C227.564 78.7702 227.43 78.3667 227.132 78.3626Z" fill="#8D8C8C"/>
<path d="M100.796 96.5047C100.796 96.5047 157.313 83.6578 202.267 89.0907L100.796 96.5047Z" fill="#C4C4C4"/>
<path d="M21.3281 70.059C21.3281 70.059 42.5534 80.2753 74.3319 50.709L44.1502 56.7033C44.1502 56.7033 31.4253 65.0152 21.3281 70.059Z" fill="#C4C4C4"/>
<path d="M277.922 38.0574C277.655 37.9655 277.36 37.8489 277.031 37.7252C268.152 34.0842 261.125 27.1814 257.437 18.4756C257.961 18.9445 274.799 35.165 277.922 38.0574Z" fill="#8D8C8C"/>
<path d="M230.115 10.7773C230.115 10.7773 234.195 7.31279 235.022 11.4193L230.115 10.7773Z" fill="#111111"/>
<path d="M239.558 2.562L239.212 2.32129L233.767 10.0051L234.112 10.2459L239.558 2.562Z" fill="#111111"/>
<path d="M293.558 85.6059C293.097 90.2641 291.855 98.1972 288.543 99.1183C288.543 99.1183 281.706 100.828 280.354 100.112C280.354 100.112 280.26 78.0701 261.089 73.2177C249.731 70.3717 227.858 71.1448 225.555 103.305C225.555 103.305 96.8937 105.79 88.234 107.494C88.234 107.494 84.8393 107.055 85.3952 102.036C85.3952 102.036 85.4064 100.605 85.2337 98.8753C85.2337 98.8753 200.757 83.1948 220.813 91.1106C220.813 91.1106 231.304 64.5486 259.334 69.4844C266.762 70.7554 273.388 74.5936 277.94 80.2629C277.94 80.2629 287.802 88.0351 293.254 85.677C293.35 85.6362 293.454 85.6122 293.558 85.6059V85.6059Z" fill="#8D8C8C"/>
<path d="M45.9116 53.8259C45.9116 53.8259 74.88 47.3456 82.4753 41.9709C82.4753 41.9709 64.1151 52.7132 73.6375 51.7368C126.643 46.2853 247.24 39.1161 247.264 39.3465C247.727 45.1049 43.5444 56.6269 43.5444 56.6269C43.5444 56.6269 46.6763 55.6701 45.9116 53.8259Z" fill="#C4C4C4"/>
<path d="M255.488 14.2504C255.488 14.2504 247.708 15.7466 245.754 17.2629C245.504 17.458 245.209 17.5945 244.894 17.6611C244.579 17.7277 244.253 17.7225 243.943 17.6458C233.071 15.059 221.973 13.3435 210.767 12.5176C210.767 12.5176 235.275 11.7766 255.488 14.2504Z" fill="#8D8C8C"/>
<path d="M44.1981 56.4741L43.9165 56.7686C43.8153 56.8876 43.707 57.0009 43.5923 57.1077C31.3424 69.6899 12.8756 69.2406 12.8756 69.2406C12.9028 67.2687 13.3737 65.3191 14.2552 63.5296C15.1366 61.7401 16.4071 60.1543 17.977 58.8839C19.7668 57.3918 21.8186 56.23 24.0289 55.4571C24.4981 55.2743 25.003 55.1156 25.5083 54.9654C25.5083 54.9654 32.5486 53.5743 41.1263 51.2613L41.2331 51.308C41.2331 51.308 50.3172 53.2497 44.1981 56.4741Z" fill="#E0E9EF"/>
<path d="M220.879 91.2407C217.574 99.3557 211.188 98.3899 211.188 98.3899L171.936 99.0548L100.293 100.273C99.0891 100.565 97.8492 100.7 96.6101 100.674L92.6312 97.9055C92.6312 97.9055 194.996 83.6039 220.27 91.0557C220.474 91.1442 220.685 91.1921 220.879 91.2407Z" fill="#8D8C8C"/>
<path d="M235.658 71.7092C232.805 73.209 229.919 76.3335 227.483 79.5407C225.165 82.6492 223.079 85.9118 221.24 89.3033C221.095 89.7515 220.949 90.1658 220.785 90.5638C217.473 99.1037 211.074 98.0874 211.074 98.0874L171.742 98.7871L99.954 100.069C98.7474 100.376 97.505 100.519 96.2634 100.491C90.0279 100.284 90.9848 94.1061 90.9848 94.1061C87.9872 87.7077 86.8636 80.2512 86.6192 73.4793C86.4039 66.7523 86.9188 60.01 88.1554 53.3633C96.9883 51.4105 136.34 47.9988 173.704 45.0551C211.585 42.0721 247.427 39.5849 247.427 39.5849C252.006 60.296 235.658 71.7092 235.658 71.7092Z" stroke="#8D8C8C" stroke-miterlimit="10"/>
<path d="M173.585 44.813C173.585 44.813 167.108 89.6419 171.508 98.8867" stroke="#8D8C8C" stroke-miterlimit="10"/>
<path d="M247.064 38.5726C247.067 38.6623 247.042 38.7512 246.992 38.8282C226.536 39.8652 200.41 41.8586 173.748 44.1526C143.283 46.7766 112.128 49.8003 87.9514 52.2247C87.9514 52.2247 87.0125 36.6273 92.734 33.7908C92.734 33.7908 131.723 10.5447 180.204 11.6273C196.124 11.9871 241.484 11.5517 243.126 20.2058C243.117 20.1641 247.058 35.2972 247.064 38.5726Z" fill="#434443"/>
<path d="M186.027 16.3213C184.935 22.7391 181.64 42.2671 181.712 43.5656L229.997 40.4149C229.997 40.4149 239.308 28.0258 236.995 19.8368C236.712 18.83 204.871 13.9082 188.524 14.2187C187.925 14.2311 187.347 14.4486 186.891 14.8332C186.434 15.2177 186.128 15.7446 186.027 16.3213V16.3213Z" fill="#D6E3DD"/>
<path d="M95.2469 35.4263C98.2649 32.8222 105.652 29.6068 109.449 28.0722C109.583 28.0182 109.729 27.9998 109.872 28.0189C110.015 28.038 110.15 28.0939 110.262 28.181C110.375 28.2681 110.461 28.3832 110.513 28.5147C110.565 28.6461 110.579 28.7892 110.556 28.9293C110.016 32.2622 108.468 41.3961 107.586 41.9858C107.586 41.9858 97.9813 44.9438 94.1879 42.8497C94.1884 42.8669 93.1058 37.2685 95.2469 35.4263Z" fill="#D6E3DD"/>
<path d="M108.322 37.1708C108.322 37.1708 112.296 44.1673 108.739 47.285C108.739 47.285 98.2221 49.0494 97.8929 42.059C97.8929 42.059 98.4738 35.8046 108.322 37.1708Z" fill="#2A2B2A"/>
<path d="M115.297 25.2457C122.248 22.5396 151.975 11.6753 171.81 13.8438C171.96 13.8644 172.104 13.9149 172.233 13.9924C172.362 14.0698 172.473 14.1725 172.559 14.294C172.644 14.4155 172.703 14.5533 172.732 14.6989C172.761 14.8445 172.758 14.9947 172.725 15.1404C171.795 19.5139 168.384 35.2735 166.379 42.0058C166.202 42.5954 165.848 43.122 165.362 43.5161C164.876 43.9101 164.281 44.153 163.656 44.2127L113.011 49.0671L109.824 41.3682L113.257 27.3462C113.418 26.8724 113.684 26.4379 114.037 26.0745C114.39 25.7111 114.821 25.4279 115.297 25.2457V25.2457Z" fill="#D6E3DD"/>
</g>
</svg>
