<svg width="218" height="186" viewBox="0 0 218 186" fill="none" xmlns="http://www.w3.org/2000/svg">
<g opacity="0.6">
<path d="M38.6367 130.655L29.7758 130.688C19.3636 130.727 10.9552 139.681 10.9951 150.688L11.0509 166.068C11.0908 177.076 19.5639 185.968 29.9761 185.929L38.837 185.896C49.2492 185.858 57.6576 176.903 57.6177 165.896L57.5619 150.516C57.522 139.509 49.0489 130.617 38.6367 130.655Z" fill="#595958"/>
<path d="M188.264 130.086L179.403 130.119C168.991 130.159 160.582 139.115 160.62 150.122L160.675 165.502C160.713 176.509 169.185 185.4 179.598 185.361L188.459 185.327C198.871 185.287 207.28 176.332 207.241 165.324L207.187 149.944C207.148 138.937 198.676 130.046 188.264 130.086Z" fill="#595958"/>
<path d="M208.78 166.611C207.311 167.194 205.772 167.552 204.208 167.674C202.507 167.821 200.795 167.652 199.149 167.176C97.2638 189.232 17.9238 164.734 17.9238 164.734C16.0289 165.459 13.9641 165.523 12.0322 164.917C10.541 164.564 9.08011 164.08 7.66461 163.472C-1.96616 135.818 -0.913535 116.435 2.18151 104.36C3.42365 98.9273 5.66001 93.804 8.76437 89.2794C8.88228 89.1175 9.00814 88.9623 9.14143 88.8143C7.57034 80.078 9.04716 64.0171 9.04716 64.0171C8.12022 62.8046 12.1893 60.6953 13.4148 60.0807L13.6505 59.9811H13.7761C15.8186 57.8053 23.6897 49.1686 23.6897 49.1686C45.6849 2.09872 51.9693 5.20461 51.9693 5.20461C118.599 -6.27221 167.649 5.42052 167.649 5.42052C178.646 13.0773 194.357 48.6039 194.357 48.6039C195.19 49.7001 196.022 50.7963 196.855 51.9257C199.183 55.0678 201.77 57.9858 204.585 60.6455C206.431 61.6888 208.21 62.8595 209.911 64.15C212.22 83.0344 209.911 88.9472 209.911 88.9472C213.414 95.7371 215.804 103.105 216.981 110.738C221.647 140.003 208.78 166.611 208.78 166.611Z" fill="#434443"/>
<path d="M196.792 51.8085C193.226 51.958 189.88 51.8085 191.828 50.6625C195.52 48.4203 173.807 15.3518 173.807 15.3518C172.421 13.7221 170.724 12.4197 168.829 11.5297C166.935 10.6397 164.883 10.1819 162.81 10.1864C149.644 8.52547 136.306 7.74485 123.643 7.47911C112.645 7.26319 102.134 7.47911 92.7079 7.81129C67.7747 8.80783 50.2885 11.1331 50.2885 11.1331C40.1078 14.4549 27.3663 44.3511 27.3663 44.3511C24.9311 48.6694 25.5438 51.2937 25.5438 51.2937C23.2029 51.6923 17.3113 62.6708 17.3113 62.6708C16.6672 62.7871 15.049 61.5248 13.415 60.0632L13.7764 59.8805C15.8188 57.7047 23.69 49.068 23.69 49.068C45.6852 1.99813 51.9695 5.10402 51.9695 5.10402C118.599 -6.3728 167.649 5.31994 167.649 5.31994C178.646 12.9767 194.357 48.5033 194.357 48.5033C195.127 49.6494 195.96 50.7456 196.792 51.8085Z" fill="#8D8C8C"/>
<path d="M208.78 166.613C207.312 167.196 205.772 167.554 204.208 167.676C202.507 167.823 200.795 167.654 199.149 167.178C97.2638 189.234 17.9238 164.736 17.9238 164.736C16.0289 165.461 13.9641 165.525 12.0322 164.919C10.541 164.566 9.08011 164.083 7.66461 163.474C-1.96616 135.82 -0.913535 116.437 2.18151 104.362C3.42365 98.9294 5.66001 93.8061 8.76437 89.2815C8.76437 89.2815 6.45487 102.801 34.7502 103.598C34.7502 103.598 42.3385 124.194 55.8656 122.566C55.8656 122.566 75.0643 129.21 158.269 124.792C158.269 124.792 175.551 124.41 180.657 103.814C180.657 103.814 212.754 101.605 209.314 88.75L209.879 88.8496C213.382 95.6395 215.773 103.007 216.949 110.641C221.647 140.005 208.78 166.613 208.78 166.613Z" fill="#C4C4C4"/>
<path d="M208.78 166.61C207.312 167.193 205.772 167.551 204.208 167.673C202.507 167.82 200.795 167.651 199.149 167.175C97.2638 189.231 17.9238 164.733 17.9238 164.733C16.0289 165.458 13.9641 165.522 12.0322 164.916C10.541 164.563 9.08011 164.08 7.66461 163.471C-1.96616 135.817 -0.913535 116.434 2.18151 104.359C2.48002 106.02 6.72195 126.134 25.4493 131.814C25.4493 131.814 63.7682 143.158 131.404 140.8C131.404 140.8 213.351 143.872 216.949 110.638C221.647 140.002 208.78 166.61 208.78 166.61Z" fill="#8D8C8C"/>
<path d="M20.7839 63.9805C20.7839 63.9805 24.2403 66.5715 25.0101 73.6138C25.0101 73.6138 36.7933 127.344 54.3109 122.046C54.3109 122.046 119.401 130.732 164.177 123.325C164.177 123.325 173.808 122.893 176.196 114.273C176.196 114.273 190.336 81.7356 195.882 66.721C196.966 63.7812 202.37 62.1037 204.208 60.6587C201.337 56.2481 198.012 52.1874 194.295 48.5508C194.295 48.5508 197.437 56.4401 124.711 61.2234C124.711 61.2234 113.588 57.3536 95.8191 60.5591C95.8191 60.5591 36.3063 57.3868 26.157 51.1584C25.2221 50.6309 24.3862 49.9273 23.6904 49.0823L13.7769 59.8947C13.7769 59.8947 14.5938 62.2864 20.7839 63.9805Z" fill="#8D8C8C"/>
<path d="M9.04801 63.0837C9.04801 63.0837 92.9284 82.0677 125.309 76.8027C125.309 76.8027 205.308 69.6608 209.472 64.512C209.472 64.512 211.923 63.4657 204.256 59.8781C204.256 59.8781 196.934 49.7466 194.342 48.5508C194.342 48.5508 195.913 56.2407 124.759 60.4262C124.759 60.4262 110.289 53.4504 95.8663 59.8117C95.8663 59.8117 30.1791 57.2539 23.7377 49.0823L13.6513 59.247C13.6513 59.247 8.54527 59.8947 9.04801 63.0837Z" fill="#C4C4C4"/>
<path d="M51.9696 16.8804C51.9696 16.8804 56.2744 12.1634 73.4307 11.3164C73.4307 11.3164 142.559 8.99111 151.985 11.798C151.985 11.798 164.554 14.6714 170.838 23.0755C170.838 23.0755 189.251 43.5544 172.048 48.9025C172.048 48.9025 128.56 60.6285 49.503 49.9655C49.503 49.9655 31.4827 47.4908 40.1865 32.9745C40.1708 32.9745 49.3774 18.7074 51.9696 16.8804Z" fill="#D6E3DD"/>
<path d="M123.72 7.38166C123.72 7.38166 123.72 7.38166 123.72 7.48131C112.723 7.2654 102.212 7.48131 92.7856 7.81349C92.7856 7.06609 93.037 2.24948 96.2892 2.36574L119.855 2.13321C120.483 2.0596 121.117 2.15714 121.699 2.41652C122.28 2.67591 122.789 3.08848 123.176 3.61486C123.564 4.14124 123.817 4.76386 123.913 5.42329C124.008 6.08273 123.942 6.75697 123.72 7.38166V7.38166Z" fill="#D6E3DD"/>
<path d="M118.081 69.9314C118.081 73.4193 113.682 76.2761 108.214 76.2927C102.747 76.3093 98.3477 73.5024 98.332 69.9979C98.3716 69.1965 98.5937 68.4172 98.9794 67.726C99.3651 67.0349 99.903 66.4525 100.547 66.0283C102.873 64.4521 105.581 63.6212 108.344 63.6359C111.106 63.6507 113.806 64.5104 116.117 66.1114C116.696 66.5498 117.173 67.1214 117.514 67.783C117.854 68.4446 118.048 69.1792 118.081 69.9314Z" stroke="#D6E3DD" stroke-miterlimit="10"/>
<path d="M116.069 66.1104C107.35 72.1395 101.71 67.2896 100.5 66.0273C102.826 64.4511 105.534 63.6202 108.296 63.635C111.059 63.6497 113.759 64.5094 116.069 66.1104V66.1104Z" stroke="#D6E3DD" stroke-miterlimit="10"/>
<path d="M110.383 70.3611C110.383 73.6829 109.409 76.4068 108.183 76.4068C106.958 76.4068 105.937 73.7161 105.937 70.3777C105.937 67.0393 106.911 64.3486 108.136 64.3486C109.361 64.3486 110.367 67.0393 110.383 70.3611Z" stroke="#D6E3DD" stroke-miterlimit="10"/>
<path d="M168.371 81.157C168.371 81.157 169.235 84.9439 163.061 86.1397C163.061 86.1397 114.215 96.238 54.6555 85.5086C52.564 84.0134 50.7528 82.1212 49.3138 79.928C48.8135 79.1053 48.5164 78.163 48.4497 77.1875C48.4497 77.1875 159.573 82.1702 168.434 78.2837L168.371 81.157Z" fill="#8D8C8C"/>
<path d="M168.465 78.2847L168.37 81.158C106.548 91.8376 49.4076 79.9124 49.4076 79.9124C48.9072 79.0897 48.6101 78.1474 48.5435 77.1719C48.5435 77.1719 153.838 78.9324 168.465 78.2847Z" fill="#8D8C8C"/>
<path d="M163.688 85.6055L156.006 113.376C156.022 113.557 156.001 113.74 155.944 113.912C155.887 114.084 155.795 114.241 155.676 114.372C149.643 121.498 63.2485 115.884 63.2485 115.884C62.5501 115.652 61.95 115.171 61.5517 114.522C57.1684 108.526 54.686 85.5059 54.686 85.5059C102.981 94.973 163.688 85.6055 163.688 85.6055Z" fill="#8D8C8C"/>
<path d="M33.9943 101.898C33.9943 101.898 32.2347 130.964 49.7052 132.858C49.7052 132.858 127.521 143.57 165.636 135.05C165.636 135.05 184.347 136.877 185.714 102.978H181.001L175.958 113.79C175.958 113.79 174.779 122.095 164.505 123.341C164.505 123.341 121.08 130.632 54.6227 121.962C54.6698 121.962 43.358 124.769 33.9943 101.898Z" fill="#8D8C8C"/>
<path d="M61.9604 86.9191C61.9604 86.9191 65.6368 113.128 74.2778 113.493L142.18 113.875C142.18 113.875 149.25 115.154 150.664 105.754L154.309 86.6865C154.309 86.6865 129.014 91.7523 61.9604 86.9191Z" fill="#C4C4C4"/>
<path d="M155.678 114.374C149.645 121.499 63.2505 115.885 63.2505 115.885C62.5521 115.654 61.952 115.173 61.5537 114.524C61.5537 114.524 68.1209 113.909 71.0745 112.148C71.0745 112.148 119.778 115.47 146.11 113.344C146.11 113.344 151.86 115.719 155.678 114.374Z" fill="#C4C4C4"/>
<path d="M33.7446 101.698C33.7446 101.698 47.963 109.156 54.3102 122.044C54.3102 122.044 43.2811 126.529 33.7446 101.698Z" fill="#8D8C8C"/>
<path d="M180.908 102.897C180.908 102.897 166.768 110.455 160.483 123.41C160.483 123.41 174.843 127.695 180.908 102.897Z" fill="#8D8C8C"/>
<path d="M124.558 89.6089L91.3457 89.7375C88.0398 89.7504 85.3697 92.5939 85.3818 96.0887L85.4221 107.715C85.4342 111.21 88.124 114.033 91.4299 114.02L124.642 113.891C127.948 113.878 130.618 111.035 130.606 107.54L130.566 95.9136C130.554 92.4188 127.864 89.596 124.558 89.6089Z" fill="#D6E3DD"/>
<path d="M34.5633 103.71C32.7908 103.664 31.0226 103.503 29.2687 103.229C6.09514 101.568 8.68743 89.4764 8.68743 89.4764V89.2771C8.80535 89.1152 8.93121 88.96 9.06449 88.8121C8.67798 86.2737 8.46272 83.7094 8.42035 81.1387C8.18468 72.9671 8.67172 64.0148 8.67172 64.0148C8.63954 63.6891 8.63954 63.3607 8.67172 63.0349C9.25302 59.4806 13.5892 59.248 13.6521 59.248C15.1289 61.9553 20.7691 63.9484 20.7691 63.9484C21.5157 64.5035 22.1779 65.1755 22.733 65.9415V65.9415C24.2408 68.1659 25.1625 70.7739 25.4038 73.4986C24.3669 76.538 34.5633 103.71 34.5633 103.71Z" fill="#D6E3DD"/>
<path opacity="0.76" d="M29.1741 103.195C5.90633 101.535 8.75 89.2771 8.75 89.2771C8.86791 89.1152 8.99377 88.96 9.12706 88.812C8.74054 86.2736 8.52529 83.7094 8.48291 81.1387C8.62882 81.1981 8.75464 81.3022 8.84426 81.4376C8.84426 81.4376 28.4514 90.8051 29.1741 103.195Z" fill="#C6C6C6"/>
<path d="M209.896 90.8082L209.581 90.9909C209.581 90.9909 213.116 99.993 180.406 104.029C180.406 104.029 190.241 78.0857 192.975 74.6144C193.352 72.414 194.102 70.3039 195.19 68.386C195.845 67.1726 196.648 66.0558 197.578 65.0642C197.578 65.0642 204.193 59.9985 205.952 60.6296C207.712 61.2608 210.823 63.4864 209.896 64.7154C209.896 64.7154 209.896 64.8649 209.896 65.1805C210.351 67.8379 212.346 81.1584 209.519 90.2933C209.653 90.4574 209.779 90.6293 209.896 90.8082Z" fill="#D6E3DD"/>
<path opacity="0.76" d="M209.63 91.0733C209.63 90.9736 209.976 90.8739 209.976 90.8739C209.74 90.5584 209.567 90.3591 209.567 90.3591C210.431 87.7834 210.867 85.0695 210.856 82.3369C210.714 82.3369 190.431 90.4919 189.395 102.633C189.379 102.783 211.248 99.2947 209.63 91.0733Z" fill="#C6C6C6"/>
<path opacity="0.48" d="M22.7315 65.9747C17.9887 65.5722 13.3066 64.5856 8.78027 63.0349C9.2516 59.4806 13.5878 59.248 13.6506 59.248C15.1275 61.9553 20.7677 63.9484 20.7677 63.9484C21.5166 64.5136 22.1789 65.197 22.7315 65.9747V65.9747Z" fill="#FCFCFC"/>
<path opacity="0.48" d="M209.818 64.8112C209.818 64.8112 209.818 64.9606 209.818 65.2762C204.696 66.7876 195.034 68.4485 195.034 68.4485C195.689 67.2352 196.492 66.1183 197.422 65.1267C197.422 65.1267 204.037 60.061 205.796 60.6921C207.556 61.3233 210.745 63.5821 209.818 64.8112Z" fill="#FCFCFC"/>
<path d="M204.24 168.072C204.248 168.116 204.248 168.161 204.24 168.205C202.537 168.352 200.823 168.172 199.181 167.673C178.289 172.421 157.077 175.431 135.741 176.675C117.503 177.754 99.2176 177.56 81.004 176.094C42.1353 172.938 17.9248 165.066 17.9248 165.066C16.0377 165.829 13.9626 165.899 12.0332 165.265L12.2374 165.099C12.2374 165.099 11.9546 154.934 25.7959 159.551C25.7959 159.551 45.5916 163.322 74.4997 165.83C96.7442 167.849 119.082 168.475 141.397 167.706C157.96 167.157 174.468 165.414 190.807 162.491C190.807 162.491 204.79 156.661 204.24 168.072Z" fill="#434443"/>
<path d="M141.396 167.206C139.94 170.319 138.061 173.189 135.818 175.726C132.676 179.048 130.634 178.932 130.634 178.932L86.1878 178.184C84.3967 178.184 82.8256 177.005 81.0817 175.178C78.5222 172.236 76.3212 168.966 74.5303 165.445C96.7705 167.345 119.094 167.933 141.396 167.206V167.206Z" fill="#DADADA"/>
</g>
</svg>
