<svg width="331" height="189" viewBox="0 0 331 189" fill="none" xmlns="http://www.w3.org/2000/svg">
<path d="M108.29 189C109.285 184.371 110.066 179.86 105.874 175.765C101.326 171.254 100.757 165.557 101.468 159.978C102.818 149.71 103.529 139.383 105.803 129.175C106.726 125.139 108.432 121.4 110.635 117.78C111.487 116.296 111.487 115.465 109.924 114.219C103.884 109.589 99.6915 104.129 100.615 96.8292C100.757 95.8796 100.544 94.93 100.544 93.921C100.615 91.9031 98.4835 91.6657 96.9912 91.0129C95.2147 90.3007 94.8594 91.7844 94.2199 92.556C93.0829 94.0397 91.3775 95.2267 91.0932 97.1853C90.9511 98.3723 89.3167 98.5504 88.1087 98.9065C85.3374 99.6187 82.4239 100.212 79.7236 101.043C74.6073 102.646 69.7042 103.358 65.1563 99.8561C63.6641 98.7284 61.6033 98.7878 59.6847 99.2626C53.2182 100.865 46.6097 102.23 40.2143 104.129C37.8693 104.841 35.3111 105.376 33.1793 106.741C30.5501 108.402 26.5707 107.156 24.2258 104.485C23.1599 103.298 23.5152 101.043 21.6676 100.806C18.6831 100.39 15.5564 100.746 12.5719 101.459C11.0086 101.815 9.44529 102.467 7.81091 102.705C4.18685 103.298 0.704909 101.34 0.136429 98.313C-0.360991 95.8796 0.420669 93.5056 3.83155 93.2682C15.2722 92.556 25.718 88.3421 36.8034 86.4429C37.1587 86.3836 37.585 86.2055 37.9403 86.2055C43.1988 86.6803 47.6756 85.612 51.0864 81.9917C51.5839 81.4575 53.0051 81.1608 53.9288 81.2201C58.832 81.5169 62.2429 78.7868 66.2222 77.1843C66.7196 77.0062 67.3592 76.4721 67.4302 76.0566C68.4251 70.4777 73.1861 67.807 78.8709 66.1452C82.0686 65.1956 84.5557 63.1183 87.9666 62.5842C90.5958 62.1687 89.3167 61.1597 88.0376 60.3288C80.6474 55.6402 72.9729 51.1296 65.8669 46.0848C61.1059 42.9392 57.695 42.1083 51.797 45.0165C38.7931 51.367 19.5358 45.2539 13.7089 32.6717C7.81091 19.9114 15.6275 5.37059 30.9765 1.21608C46.7518 -2.99778 63.4509 4.42099 67.5013 17.5374C69.2067 22.9976 68.7804 28.3391 65.8669 33.5026C64.9431 35.2237 65.2274 35.9953 67.0039 37.1229C78.7998 44.423 90.5247 51.7824 102.25 59.2012C104.31 60.5069 105.447 62.05 105.518 64.6021C105.589 68.0444 107.295 71.4867 106.869 75.0477C106.797 75.5818 107.153 75.8786 107.863 76.1753C114.401 78.8461 120.441 82.1104 124.847 87.0958C128.258 90.8942 133.232 91.6657 138.49 91.9031C138.632 91.9031 138.774 91.9031 138.846 91.9031C139.272 91.7844 140.196 91.547 140.125 91.4283C139.556 87.7486 145.952 88.5202 145.88 85.1372C145.738 79.9738 149.291 76.7095 154.337 74.5729C163.574 70.7745 173.096 70.6558 182.476 74.3355C187.877 76.4721 191.643 79.7957 191.43 85.2559C191.359 86.6803 192.212 87.3925 193.775 87.6893C195.978 88.1047 195.622 86.5023 195.978 85.7307C202.444 70.7745 211.54 67.1541 231.081 70.2403C234.492 70.7745 236.127 70.5371 236.198 67.3915C236.34 58.9638 244.938 56.293 251.191 52.0792C257.303 47.984 263.627 44.245 269.951 40.3872C271.87 39.2002 273.007 37.4197 275.565 36.7668C278.549 35.9953 276.773 34.2148 276.133 32.8497C271.515 23.413 274.215 12.9674 283.097 6.20149C291.838 -0.505076 305.055 -1.92948 315.572 2.69983C328.718 8.4568 334.261 22.5821 327.936 33.918C320.475 47.2718 300.081 51.4263 286.366 43.2953C284.305 42.1083 283.097 42.1677 281.108 43.414C270.307 50.4174 259.434 57.3613 248.491 64.1866C245.293 66.1452 248.136 68.0444 248.207 69.8842C248.278 71.8428 250.907 71.368 251.831 70.8932C257.018 68.4005 260.998 69.5875 265.261 72.7924C267.748 74.6322 271.372 75.3444 274.073 77.2436C274.925 77.8371 275.849 78.1339 276.915 78.0152C278.976 77.8371 280.681 78.49 282.031 79.7363C284.59 82.1104 287.858 82.8819 291.482 83.3567C300.081 84.4844 308.182 87.2738 316.424 89.4104C318.414 89.9446 320.191 90.36 322.322 89.7665C325.378 88.9356 328.149 89.5885 329.997 91.9625C331.631 94.0991 330.921 96.0576 329.073 97.8381C326.87 99.9748 324.099 100.865 320.83 99.6187C319.409 99.0845 318.059 98.6097 316.567 98.313C313.369 97.6601 311.095 97.4821 309.105 100.628C306.902 104.129 304.202 103.833 299.583 102.349C291.127 99.7374 282.458 97.304 273.646 95.5829C270.662 94.9893 266.611 96.2357 263.698 97.9569C259.079 100.628 254.958 100.39 250.339 97.7195C246.359 95.4048 242.38 93.2088 239.68 89.7665C238.187 87.8673 237.193 88.2234 236.198 89.8852C235.274 91.4877 233.853 92.1405 231.863 92.6153C228.594 93.3869 226.463 95.7609 223.904 97.4821C223.123 98.0162 223.691 98.6097 224.118 99.1439C225.041 100.272 225.894 101.518 226.96 102.586C229.873 105.554 230.158 108.581 227.315 111.607C225.681 113.388 225.539 115.168 226.676 117.008C232.929 126.386 233.284 136.831 234.705 147.039C235.345 151.787 235.7 156.595 236.269 161.402C236.908 166.388 235.985 171.254 232.218 175.053C227.955 179.445 228.594 184.074 229.518 188.941C227.457 188.941 225.397 188.941 223.407 188.941C223.833 182.65 223.052 176.418 222.838 170.186C222.696 166.506 220.636 165.201 214.951 165.082C210.687 164.963 210.687 167.515 210.687 169.83C210.474 176.18 210.474 182.59 210.403 188.941C208.84 188.941 207.347 188.941 205.784 188.941C206.068 182.234 206.353 175.528 206.495 168.762C206.495 167.99 207.418 166.566 205.713 166.447C203.937 166.328 204.079 167.753 204.079 168.821C203.865 175.528 203.723 182.234 203.51 188.941C180.771 188.941 157.961 188.941 135.221 188.941C135.008 183.006 134.724 177.071 134.511 171.136C134.298 166.21 134.013 165.913 128.187 165.201C123.426 164.607 122.289 165.379 122.146 169.533C121.862 176.002 121.72 182.471 121.436 188.941C119.873 188.941 118.38 188.941 116.817 188.941C117.172 182.234 117.456 175.587 117.741 168.88C117.741 168.109 118.309 166.803 117.03 166.744C115.325 166.625 115.822 168.049 115.751 168.94C115.325 175.646 114.898 182.293 114.472 189C112.34 189 110.35 189 108.29 189ZM169.615 114.694C153.981 114.753 139.698 124.308 139.059 139.027C138.49 153.271 151.636 164.666 168.691 165.082C184.679 165.497 198.962 153.865 199.104 140.274C199.247 126.386 185.958 114.872 169.615 114.694ZM290.061 34.7489C300.294 39.0815 312.587 37.2416 319.338 30.7725C323.815 26.4399 325.804 21.5732 322.607 15.9943C318.485 8.6942 310.313 4.59904 300.649 5.07384C288.569 5.60799 278.336 15.9349 280.326 25.6683C280.894 28.5765 282.813 31.2473 285.798 32.1969C287.858 32.8497 290.061 30.4164 291.767 28.8733C291.838 28.8139 291.909 28.6952 291.98 28.6359C295.391 26.6773 297.096 23.0569 301.36 21.8699C302.639 21.5138 303.634 20.9203 304.771 21.9886C305.908 22.9976 305.979 24.1252 305.055 25.1935C304.273 26.0244 303.349 26.796 302.497 27.5676C299.086 30.4757 294.822 32.4936 290.061 34.7489ZM51.6549 34.8083C50.589 33.74 49.2389 33.0871 47.6756 32.4343C43.6251 30.8318 40.4274 28.1611 37.3719 25.4903C36.5191 24.7781 35.8796 23.7098 36.8744 22.5821C37.514 21.8699 38.2246 20.9203 39.2194 21.2764C41.6355 22.1667 44.7621 22.9382 46.0412 24.6C48.3151 27.5676 51.5839 29.5261 54.6394 31.7221C55.6343 32.4343 56.5581 32.6717 57.624 31.7814C59.8979 29.8822 61.8876 27.805 62.2429 24.9561C63.2377 17.3 56.7712 8.99095 47.7466 6.14214C37.6561 2.93723 27.4235 6.61694 22.2361 12.6707C19.5358 15.8162 17.6172 19.2585 18.541 23.413C20.957 34.5709 40.0721 41.2181 51.6549 34.8083ZM134.937 133.448C136.998 131.074 139.556 129.353 141.119 126.86C145.383 120.154 152.276 115.999 160.732 113.922C173.878 110.598 188.872 115.881 196.546 125.97C203.723 135.466 202.373 148.642 193.42 157.307C184.182 166.269 168.833 169.118 156.113 164.31C155.189 163.954 154.408 162.945 152.986 163.657C154.834 165.023 157.463 165.201 158.884 166.625C150.357 168.702 146.236 162.589 140.125 159.088C140.835 161.046 142.185 161.996 143.464 163.005C160.661 176.24 188.445 172.857 200.526 156.179C208.626 144.962 207.489 130.599 197.754 120.51C188.161 110.598 170.965 105.969 156.042 110.776C149.078 112.972 143.109 116.355 138.703 121.46C135.719 124.902 132.805 128.403 134.937 133.448ZM216.869 112.972C215.519 112.379 215.661 111.548 215.661 110.836C215.59 109.352 215.164 107.75 213.174 107.75C210.687 107.75 211.256 109.649 211.256 110.895C211.114 115.287 211.895 119.501 213.032 123.893C215.164 132.202 214.098 140.867 213.956 149.413C213.956 150.838 214.098 152.5 211.753 153.034C210.19 153.39 210.545 154.458 210.687 155.408C210.9 156.654 212.108 156.417 213.032 156.476C215.164 156.654 217.438 156.595 219.499 157.129C222.341 157.841 222.91 157.188 222.838 154.874C222.199 141.52 221.702 128.166 221.133 114.872C221.062 112.854 220.92 110.836 220.849 108.818C220.778 107.215 219.428 106.385 217.935 106.385C216.23 106.385 217.083 107.868 217.012 108.64C216.727 110.005 216.869 111.37 216.869 112.972ZM134.795 122.587C142.754 112.913 153.555 107.334 167.838 107.156C182.05 106.978 193.206 112.142 202.16 122.468C198.678 111.726 184.111 102.942 170.254 102.349C154.834 101.755 140.551 109.768 134.795 122.587ZM127.76 114.219C127.334 112.26 127.05 111.014 126.765 109.768C126.481 108.581 125.77 107.69 124.278 107.69C122.502 107.69 122.502 108.996 122.431 110.005C122.289 112.201 122.218 114.456 122.218 116.652C122.075 128.285 122.004 139.858 121.933 151.491C121.933 156.12 121.933 156.12 127.263 156.654C128.755 156.773 130.247 157.129 131.74 157.366C132.521 157.485 133.303 157.722 133.871 157.188C134.511 156.654 134.013 156.001 133.729 155.408C132.805 153.687 131.882 151.906 130.887 150.007C129.963 151.787 128.755 153.509 126.197 152.915C123.781 152.322 124.42 150.304 124.349 148.82C124.278 140.748 124.065 132.617 124.918 124.546C125.273 121.341 126.552 119.56 130.532 119.442C131.882 119.442 133.445 119.442 133.374 117.602C133.232 114.516 133.374 111.429 133.09 108.343C132.948 106.503 130.816 105.91 129.181 105.85C127.121 105.791 128.329 107.453 128.115 108.343C127.76 110.183 128.684 111.904 127.76 114.219ZM157.89 91.547C164.214 89.4104 170.68 89.2324 177.147 91.4283C178.142 91.7844 178.71 91.6064 178.994 90.5974C181.197 83.2974 178.284 79.9144 169.259 79.6176C167.625 79.5583 165.919 79.7957 164.356 80.0331C157.676 81.1014 157.392 81.5169 157.819 87.2738C157.961 88.6389 156.895 89.9446 157.89 91.547ZM223.762 122.053C223.549 122.706 223.336 123.003 223.336 123.24C223.904 134.873 224.473 146.505 225.112 158.079C225.183 159.562 226.249 161.105 225.539 162.47C224.544 164.31 225.539 165.319 227.102 166.21C228.026 166.744 228.95 167.456 230.229 166.744C231.792 165.853 231.934 164.488 231.863 163.064C231.863 162.767 231.863 162.411 231.792 162.114C230.3 151.491 228.879 140.926 227.315 130.303C226.818 127.513 225.752 124.842 223.762 122.053ZM114.117 119.976C112.056 121.875 111.061 124.012 110.564 126.267C108.29 136.534 107.437 146.98 106.016 157.307C105.874 158.138 105.661 159.088 107.082 159.384C107.437 159.444 107.792 159.622 108.148 159.74C107.863 159.859 107.508 159.978 107.224 160.096C104.737 160.69 105.447 162.055 106.087 163.361C106.655 164.488 107.721 165.201 109.142 164.548C110.564 163.895 113.122 163.005 112.198 161.521C111.061 159.622 112.198 158.257 112.269 156.654C112.838 144.428 113.477 132.202 114.117 119.976ZM227.884 75.9379C212.037 74.2168 201.663 81.0421 202.444 92.1999C212.037 88.1641 218.149 80.6266 227.884 75.9379ZM211.114 151.135C212.179 142.826 211.966 134.695 211.611 126.564C211.54 125.377 211.469 124.19 211.114 123.062C210.332 120.629 207.703 120.807 205.784 121.222C203.794 121.638 205.358 123.121 205.713 124.071C207.916 129.59 208.698 135.288 207.916 141.045C207.418 144.784 209.337 147.93 211.114 151.135ZM119.162 106.8C117.243 107.987 117.599 109.174 117.599 110.183C116.888 125.495 116.248 140.808 115.538 156.12C115.538 156.654 115.396 157.307 116.106 157.485C117.03 157.722 117.599 157.188 117.883 156.595C118.167 155.883 118.238 155.111 118.309 154.399C118.665 143.122 118.949 131.846 119.233 120.51C119.304 116.118 119.162 111.726 119.162 106.8ZM127.263 151.075C129.466 148.405 130.105 145.496 129.537 142.41C128.613 137.543 128.755 132.677 130.247 127.869C130.958 125.673 131.668 123.537 132.379 121.341C128.471 120.747 126.907 122.112 126.836 125.08C126.765 130.065 126.339 135.051 126.41 140.095C126.41 143.656 125.913 147.396 127.263 151.075ZM75.7443 46.5596C75.6021 46.6783 75.46 46.8564 75.3179 46.9751C75.46 47.2125 75.6021 47.5092 75.8864 47.6279C82.9924 52.3166 90.0273 57.0646 97.2044 61.6346C100.331 63.5931 100.402 65.1362 97.7729 67.807C96.8491 68.7566 95.2147 70.8338 98.5545 71.6647C100.189 72.0208 99.7625 72.8517 99.4072 73.92C98.7677 73.0298 98.3413 71.7241 97.2044 72.555C96.1385 73.3265 96.6359 74.8103 96.8491 75.8786C97.1333 77.303 98.6966 77.0656 99.9047 77.0062C101.255 76.9469 102.036 76.294 101.894 75.107C101.681 72.3176 101.397 69.5281 101.255 66.7387C101.113 63.3557 99.2651 60.9224 95.8542 59.2012C94.5752 58.5483 93.4382 57.6581 92.1591 56.8865C86.9007 53.4442 81.358 50.0019 75.7443 46.5596ZM267.109 47.2125C266.896 47.0344 266.754 46.797 266.54 46.619C259.861 50.7735 253.11 54.928 246.43 59.1418C241.598 62.1687 237.903 70.8932 239.324 75.7005C239.68 77.0062 240.675 77.1843 241.811 77.1249C242.877 77.0656 244.299 76.5314 243.73 75.6412C242.167 73.0298 243.943 70.2997 243.02 67.7476C242.096 65.0769 243.02 63.2964 245.507 61.6346C252.826 56.8865 259.932 52.0198 267.109 47.2125ZM197.47 101.696C202.018 102.052 206.495 103.951 211.114 101.874C213.103 100.984 215.022 101.043 216.798 102.289C217.935 103.12 219.214 103.417 220.707 103.18C221.63 103.061 222.128 102.764 221.844 101.933C221.204 100.093 215.519 96.7105 213.459 97.3634C208.2 99.0252 202.728 99.9154 197.47 101.696ZM140.764 101.696C135.577 100.034 130.105 99.0252 124.918 97.4227C123.781 97.0666 122.431 97.3634 121.294 98.0162C119.517 99.0252 118.736 100.865 116.746 101.755C115.964 102.111 116.391 102.883 117.314 103.12C118.878 103.476 120.299 103.239 121.578 102.349C122.999 101.34 124.634 100.865 126.481 101.637C131.171 103.654 135.861 102.23 140.764 101.696ZM179.208 77.5997C179.137 77.1843 179.065 76.6501 178.284 76.2347C175.015 74.5135 161.514 74.7509 158.387 76.5314C157.179 77.2436 157.321 78.1339 157.392 79.0835C157.463 80.0331 158.245 80.0925 159.027 79.7957C165.067 77.3623 171.178 77.7778 177.289 79.2616C179.065 79.7364 179.279 78.9648 179.208 77.5997ZM202.657 95.108C207.418 94.6332 211.327 92.6153 214.951 90.0039C221.702 85.1966 227.457 78.7868 237.619 78.49C230.655 77.4217 225.468 80.2111 220.565 83.5941C214.738 87.5706 209.479 92.0812 202.657 95.108ZM184.608 96.7699C185.248 92.9121 184.963 88.9356 184.75 85.0185C184.679 84.247 183.827 83.7722 183.116 83.3567C182.476 83.06 181.837 82.5258 181.055 82.7632C180.131 83.06 180.487 83.8315 180.487 84.425C180.487 88.8169 179.279 93.4462 184.608 96.7699ZM206.779 163.005C215.235 162.114 216.727 162.174 219.712 163.301C220.493 163.598 221.275 164.904 222.199 163.776C223.052 162.827 222.128 161.936 221.204 161.283C218.646 159.562 216.088 157.96 212.322 158.257C208.698 158.613 209.337 161.996 206.779 163.005ZM128.613 159.028C124.207 157.782 118.736 159.147 116.675 161.699C116.106 162.411 115.396 163.242 116.32 164.014C117.243 164.844 117.883 163.717 118.522 163.42C120.725 162.411 123.07 162.174 125.557 162.47C127.547 162.708 129.466 163.064 132.024 163.479C130.176 160.631 127.476 160.096 124.42 159.978C125.486 158.969 126.836 159.503 128.613 159.028ZM151.21 170.067C147.089 167.456 143.607 165.675 139.485 164.844C138.135 164.548 136.643 163.242 135.577 165.082C134.511 166.862 136.287 167.693 137.709 168.227C141.688 169.652 145.952 169.949 151.21 170.067ZM187.024 170.127C192.496 169.889 196.902 169.711 200.952 167.99C202.444 167.397 203.652 166.566 202.871 165.023C202.089 163.361 200.668 164.251 199.318 164.548C195.125 165.557 191.43 167.337 187.024 170.127ZM118.309 87.8673C121.862 93.0308 128.613 96.2357 136.856 96.5918C138.561 96.6512 141.404 97.8382 141.759 95.9983C141.972 94.6332 138.846 95.0487 137.282 94.9893C130.958 94.5739 125.273 93.2088 121.223 88.7576C120.583 88.1047 119.944 87.3925 118.309 87.8673ZM208.058 113.091C207.987 113.091 207.987 113.091 208.058 113.091C208.058 111.489 208.271 109.946 208.271 108.343C208.271 107.69 208.698 106.622 207.347 106.622C206.353 106.622 205.216 107.156 205.216 108.106C205.073 111.489 205.073 114.872 205.002 118.255C205.002 119.264 205.926 119.442 206.85 119.442C207.845 119.442 208.058 118.848 208.058 118.136C208.058 116.474 208.058 114.753 208.058 113.091ZM315.572 7.09175C306.476 -0.267675 285.229 3.29334 281.392 14.3325C289.99 3.94619 301.147 1.39413 315.572 7.09175ZM28.4894 6.32019C41.9197 1.98763 52.2234 4.30229 60.8927 14.0357C55.4922 3.29334 36.8034 0.325826 28.4894 6.32019ZM248.136 81.2201C251.12 81.7543 253.892 82.5852 256.734 81.2201C254.673 79.3209 251.902 78.3119 250.41 76.1753C249.77 75.2257 248.42 75.1664 247.425 75.9379C246.857 76.3534 247.141 77.1843 247.709 77.303C252.257 78.0745 249.131 79.7363 248.136 81.2201ZM16.1249 94.8706C24.8653 93.6836 33.6767 92.6747 42.0618 90.3007C41.9197 89.9446 41.8486 89.5885 41.7065 89.2324C33.2504 91.1316 24.6521 93.0308 16.1249 94.8706ZM177.502 180.216C171.888 181.522 166.275 181.166 160.59 180.157C166.133 182.828 171.746 183.54 177.502 180.216ZM303.421 22.1667C300.223 24.3626 297.096 26.4399 293.97 28.5172C293.401 28.9326 293.33 29.4074 293.827 29.8822C294.396 30.4164 294.964 30.2383 295.462 29.8822C297.736 28.3391 300.081 26.8554 302.284 25.2529C303.136 24.6 304.344 23.8878 303.421 22.1667ZM207.134 149.117C206.85 149.117 206.566 149.057 206.281 149.057C205.429 151.253 204.505 153.449 203.865 155.645C203.652 156.357 203.439 157.485 204.931 157.604C206.139 157.663 206.779 157.01 206.779 156.001C206.921 153.687 207.063 151.431 207.134 149.117ZM172.954 99.4406C173.736 97.5414 173.31 96.4137 171.746 95.5235C170.467 94.8113 169.188 94.5145 167.909 95.3454C166.488 96.1763 165.493 97.1853 166.346 98.7878C169.615 96.5918 170.112 96.5918 172.954 99.4406ZM108.361 81.4575C111.416 83.5348 114.401 85.7901 118.38 86.7397C115.964 83.7722 112.767 81.8136 108.361 81.4575ZM86.1901 73.6233C83.2766 73.3859 81.2869 74.2761 81.6422 76.7688C81.9265 79.0241 83.9162 79.7364 87.0428 79.0241C83.9162 77.3623 83.0634 75.7005 86.1901 73.6233ZM298.588 89.2917C298.517 89.5885 298.446 89.8852 298.304 90.2413C304.344 91.369 310.313 92.4966 316.353 93.5649C310.527 91.7251 304.7 90.0633 298.588 89.2917ZM168.762 179.326C171.036 179.267 172.528 179.029 173.878 178.376C174.518 178.02 175.37 177.664 174.731 176.893C174.091 176.062 173.523 176.774 172.954 177.13C170.823 178.436 168.478 178.139 165.99 177.723C164.925 177.545 164.214 175.171 163.219 176.952C162.58 178.08 164.925 178.376 166.133 178.792C167.198 179.148 168.335 179.267 168.762 179.326ZM109.142 97.4227C108.929 99.3813 108.432 101.399 111.132 102.408C112.411 102.883 112.482 102.111 112.838 101.34C113.903 98.6097 110.635 98.6097 109.142 97.4227ZM180.984 77.5997C179.634 79.9144 181.268 80.9234 183.329 81.7543C183.898 81.9917 184.608 82.3478 184.821 81.5762C185.319 79.6177 183.613 78.7274 182.05 77.8371C181.766 77.7778 181.41 77.7184 180.984 77.5997ZM96.3517 66.7387C93.5093 64.7801 90.7379 65.0769 88.0376 66.7387C90.809 66.7387 93.5803 66.7387 96.3517 66.7387ZM116.746 95.108C113.477 93.8023 111.487 91.1316 108.361 89.7072C110.35 92.3779 113.051 94.3365 116.746 95.108ZM215.306 95.8796C211.398 93.8023 208.555 94.0991 206.85 97.0073C209.621 95.4048 212.251 96.4138 215.306 95.8796ZM144.744 158.079C142.683 155.17 140.48 152.381 138.703 149.354C139.414 152.856 141.617 155.705 144.744 158.079Z" fill="#797979"/>
<path d="M193.492 128.76C196.121 130.718 196.69 133.152 196.974 135.407C198.253 146.327 192.355 159.859 176.082 163.124C165.707 165.201 151.353 162.055 146.308 153.271C144.318 149.829 144.532 146.743 147.232 143.657C150.572 139.977 155.12 137.544 159.881 135.348C160.236 135.17 160.804 135.17 160.875 134.932C163.86 129.709 169.047 132.024 173.595 132.321C174.377 132.38 175.087 132.558 175.514 133.152C177.006 135.11 177.006 135.11 179.706 135.348C179.635 136.475 177.503 135.466 177.788 136.594C177.93 137.069 178.783 137.484 179.422 137.781C180.985 138.434 182.691 138.968 184.325 139.621C190.721 142.292 192.213 146.031 189.157 151.491C188.305 153.034 187.097 154.34 185.391 156.12C193.066 152.025 196.334 140.867 193.492 128.76ZM170.326 135.763C169.189 135.941 167.484 135.466 167.484 137.069C167.484 138.078 168.621 138.374 169.687 138.315C170.966 138.256 171.819 137.722 172.032 136.594C172.316 135.17 170.966 135.941 170.326 135.763Z" fill="#797979"/>
<path d="M188.445 124.189C174.518 116.415 161.158 113.744 148.652 126.089C149.362 121.815 156.397 117.364 164.214 116.118C174.162 114.515 184.537 117.839 188.445 124.189Z" fill="#797979"/>
</svg>
